<svg width="200" height="88" viewBox="0 0 200 88" fill="none" xmlns="http://www.w3.org/2000/svg">
<g clip-path="url(#clip0_16_110)">
<path d="M95.0571 59.5053L95.0176 59.206H96.4387C97.4256 59.206 98.0572 59.1063 98.294 58.8868C98.5309 58.6673 98.6493 58.1085 98.6493 57.2106V34.8015C98.6493 33.8836 98.5309 33.3248 98.294 33.1253C98.0572 32.9058 97.4453 32.806 96.4387 32.806H95.0176V32.4668H105.715C108.992 32.4668 111.617 33.2251 113.611 34.7616C115.604 36.2981 116.591 38.3135 116.591 40.8078C116.591 43.0627 115.762 44.9385 114.143 46.4151C112.505 47.8917 110.413 48.7498 107.906 48.9693L107.077 49.0092V49.2287C108.005 49.3085 108.893 49.5879 109.702 50.0668C110.531 50.5457 111.163 51.1244 111.617 51.8228L113.67 54.796C113.729 54.8759 113.887 55.1153 114.124 55.4745C114.361 55.8337 114.558 56.0931 114.676 56.2527C114.795 56.4124 114.972 56.6319 115.209 56.9512C115.446 57.2704 115.644 57.4899 115.801 57.6496C115.959 57.8092 116.157 57.9688 116.394 58.1484C116.63 58.328 116.848 58.4677 117.065 58.5475C117.282 58.6273 117.499 58.6673 117.716 58.6673C118.071 58.6673 118.486 58.5076 118.92 58.2083L119.808 57.4899L120.025 57.7693L119.137 58.4877C117.854 59.4455 116.729 59.9244 115.722 59.9244C115.229 59.9244 114.755 59.8246 114.301 59.6251C113.847 59.4255 113.413 59.1063 112.999 58.6872C112.584 58.2482 112.229 57.8691 111.953 57.5298C111.676 57.1906 111.341 56.7117 110.926 56.133L108.064 52.0423C107.294 50.9648 106.623 50.2065 106.09 49.7874C105.558 49.3684 104.867 49.1489 103.998 49.1489H103.505V48.5103H105.36C107.847 48.5103 109.742 47.8518 111.064 46.5149C112.387 45.1979 113.038 43.2822 113.038 40.7679C113.038 38.2736 112.387 36.358 111.064 35.0409C109.742 33.7239 107.847 33.0654 105.36 33.0654H101.117V33.1053C101.571 33.5244 101.788 34.1829 101.788 35.0809V57.1507C101.788 58.0487 101.906 58.6074 102.163 58.8269C102.419 59.0464 103.031 59.1661 104.018 59.1661H106.406V59.5053H95.0571Z" fill="#77C6C4"/>
<path d="M115.742 60.1834C115.209 60.1834 114.696 60.0837 114.222 59.8642C113.749 59.6447 113.275 59.3054 112.841 58.8664C112.406 58.4274 112.051 58.0283 111.775 57.6891C111.499 57.3499 111.163 56.8909 110.749 56.2723L107.887 52.1816C107.137 51.124 106.485 50.3857 105.952 49.9866C105.459 49.6075 104.807 49.4079 104.018 49.4079H103.288V48.2705H105.4C107.808 48.2705 109.663 47.632 110.926 46.3549C112.189 45.0778 112.821 43.222 112.821 40.7875C112.821 38.3531 112.189 36.4973 110.926 35.2401C109.663 33.983 107.808 33.3444 105.38 33.3444H101.63C101.906 33.7834 102.064 34.3821 102.064 35.1005V57.1703C102.064 58.2478 102.242 58.5671 102.36 58.6469C102.478 58.7467 102.853 58.9263 104.057 58.9263H106.683V59.7644H94.8202L94.7412 58.9662H96.4387C97.7019 58.9662 98.0374 58.7866 98.1164 58.7068C98.1953 58.627 98.3927 58.3277 98.3927 57.2102V34.8011C98.3927 33.6837 98.1953 33.3844 98.1164 33.3045C98.0374 33.2247 97.7019 33.0451 96.4387 33.0451H94.7807V32.207H105.715C109.031 32.207 111.735 33.0052 113.768 34.5617C115.821 36.1381 116.847 38.2333 116.847 40.8075C116.847 43.1222 115.999 45.0778 114.301 46.5943C112.703 48.0311 110.67 48.9091 108.242 49.1685C108.794 49.3281 109.327 49.5476 109.821 49.8469C110.67 50.3458 111.341 50.9644 111.814 51.6628L113.867 54.6361C113.926 54.7159 114.084 54.9553 114.341 55.3145C114.578 55.6737 114.775 55.9331 114.874 56.0927L115.407 56.7912C115.643 57.0905 115.821 57.31 115.979 57.4497C116.137 57.5893 116.334 57.7689 116.551 57.9485C116.749 58.1082 116.966 58.2279 117.163 58.3077C117.657 58.4873 118.17 58.4474 118.802 57.9884L119.867 57.1304L120.4 57.8088L119.315 58.6868C117.992 59.6846 116.788 60.1834 115.742 60.1834ZM103.781 48.8891H104.018C104.926 48.8891 105.676 49.1286 106.248 49.5676C106.821 50.0066 107.472 50.7649 108.262 51.8624L111.124 55.9531C111.538 56.5317 111.874 57.0107 112.13 57.3499C112.387 57.6891 112.722 58.0683 113.157 58.4873C113.551 58.8864 113.966 59.1857 114.4 59.3853C115.466 59.8642 116.69 59.7444 118.13 58.8664C117.716 58.9662 117.361 58.9263 116.966 58.7866C116.729 58.7068 116.472 58.5472 116.216 58.3476C115.979 58.168 115.782 57.9884 115.604 57.8288C115.426 57.6692 115.229 57.4297 114.972 57.0905L114.439 56.3921C114.321 56.2324 114.143 55.973 113.887 55.5939C113.63 55.2347 113.492 54.9952 113.433 54.9154L111.38 51.9422C110.946 51.2837 110.314 50.7249 109.545 50.266C108.755 49.807 107.906 49.5277 107.018 49.4478L106.801 49.4279V48.7494L107.867 48.7095C110.295 48.49 112.347 47.6519 113.926 46.2152C115.505 44.7984 116.295 42.9825 116.295 40.8075C116.295 38.393 115.328 36.4374 113.413 34.9608C111.479 33.4642 108.873 32.7059 105.676 32.7059H97.9979C98.1756 32.7658 98.3137 32.8256 98.4124 32.9254C98.7085 33.2048 98.8467 33.7835 98.8467 34.8011V57.2102C98.8467 58.2079 98.7085 58.8066 98.4124 59.0859C98.3335 59.1658 98.2348 59.2256 98.0966 59.2655H102.439C102.261 59.2057 102.103 59.1259 102.005 59.046C101.689 58.7667 101.551 58.188 101.551 57.1903V35.1005C101.551 34.2823 101.353 33.6837 100.959 33.3245L100.88 33.2447V32.8855L101.117 32.8456H105.36C107.906 32.8456 109.9 33.524 111.242 34.881C112.604 36.2379 113.275 38.2134 113.275 40.7875C113.275 43.3617 112.584 45.3372 111.222 46.6941C109.86 48.071 107.887 48.7494 105.34 48.7494H103.722V48.8891H103.781Z" fill="#045569"/>
<path d="M136.013 59.804C132.993 59.804 130.328 59.2254 128.039 58.0879C125.749 56.9505 123.973 55.3143 122.71 53.219C121.446 51.1238 120.834 48.7093 120.834 45.9555C120.834 41.805 122.236 38.4725 125.019 35.9383C127.802 33.4041 131.473 32.127 136.033 32.127C139.033 32.127 141.678 32.7056 143.967 33.8431C146.257 34.9805 148.033 36.6167 149.296 38.712C150.56 40.8072 151.171 43.2217 151.171 45.9555C151.171 48.7093 150.54 51.1238 149.296 53.219C148.033 55.3143 146.276 56.9306 143.967 58.0879C141.658 59.2254 139.013 59.804 136.013 59.804ZM136.171 59.1256C139.881 59.1256 142.704 58.068 144.658 55.9328C146.612 53.7977 147.579 50.7047 147.579 46.6539C147.579 42.1641 146.572 38.712 144.579 36.3374C142.585 33.9628 139.684 32.7855 135.875 32.7855C132.144 32.7855 129.302 33.8431 127.348 35.9782C125.374 38.1133 124.407 41.2063 124.407 45.2571C124.407 49.7669 125.414 53.1991 127.427 55.5737C129.44 57.9483 132.322 59.1256 136.171 59.1256Z" fill="#77C6C4"/>
<path d="M136.013 60.0436C132.973 60.0436 130.249 59.4649 127.92 58.3075C125.591 57.1502 123.756 55.474 122.492 53.3388C121.209 51.2037 120.578 48.7293 120.578 45.9356C120.578 41.7452 122.019 38.293 124.841 35.7189C127.664 33.1447 131.414 31.8477 136.013 31.8477C139.033 31.8477 141.737 32.4263 144.046 33.6037C146.375 34.761 148.191 36.4372 149.474 38.5524C150.757 40.6876 151.389 43.1619 151.389 45.9356C151.389 48.7093 150.737 51.2037 149.474 53.3388C148.191 55.474 146.375 57.1302 144.046 58.2876C141.737 59.4649 139.033 60.0436 136.013 60.0436ZM136.013 32.3665C131.532 32.3665 127.881 33.6236 125.157 36.118C122.433 38.5923 121.071 41.9048 121.071 45.9556C121.071 48.6495 121.683 51.044 122.927 53.0994C124.15 55.1547 125.907 56.7511 128.157 57.8685C130.407 58.986 133.052 59.5647 136.033 59.5647C138.973 59.5647 141.618 58.986 143.849 57.8685C146.079 56.7511 147.836 55.1347 149.059 53.0994C150.283 51.044 150.915 48.6495 150.915 45.9556C150.915 43.2817 150.303 40.8871 149.059 38.8318C147.836 36.7765 146.079 35.1801 143.849 34.0626C141.599 32.9252 138.954 32.3665 136.013 32.3665ZM136.171 59.3851C132.282 59.3851 129.262 58.1678 127.23 55.7334C125.197 53.3189 124.15 49.8068 124.15 45.2572C124.15 41.1665 125.157 37.9937 127.17 35.8186C129.184 33.6436 132.105 32.5461 135.875 32.5461C139.723 32.5461 142.724 33.7633 144.757 36.1978C146.79 38.6123 147.816 42.1243 147.816 46.674C147.816 50.7647 146.809 53.9375 144.836 56.1125C142.842 58.2876 139.941 59.3851 136.171 59.3851ZM135.875 33.0449C132.243 33.0449 129.42 34.1025 127.526 36.1579C125.611 38.2331 124.644 41.2862 124.644 45.2572C124.644 49.6672 125.631 53.0994 127.605 55.4141C129.559 57.7089 132.44 58.8862 136.171 58.8862C139.802 58.8862 142.585 57.8286 144.48 55.7733C146.375 53.698 147.342 50.6449 147.342 46.674C147.342 42.264 146.355 38.8517 144.401 36.537C142.447 34.2223 139.566 33.0449 135.875 33.0449Z" fill="#045569"/>
<path d="M168.718 59.5052V59.166H170.14C171.126 59.166 171.758 59.0662 171.995 58.8467C172.232 58.6272 172.35 58.0685 172.35 57.1705V40.7877C172.35 39.8898 172.232 39.3311 171.995 39.1315C171.758 38.912 171.146 38.8122 170.14 38.8122H169.547V38.4531H184.686C185.18 38.4531 185.535 38.5728 185.752 38.8122V38.5728C185.713 37.595 185.476 36.737 185.061 36.0186C184.647 35.3002 184.114 34.7215 183.423 34.3224C182.732 33.9034 181.982 33.6041 181.133 33.4045C180.285 33.205 179.357 33.1052 178.331 33.1052H159.047V33.1451C159.639 33.7038 159.935 34.3624 159.935 35.1206V46.3351H161.159C161.711 46.3351 162.185 46.3152 162.6 46.2753C163.014 46.2354 163.468 46.1356 163.942 45.976C164.435 45.8163 164.83 45.5968 165.146 45.3175C165.462 45.0381 165.738 44.659 165.955 44.1401C166.172 43.6413 166.271 43.0426 166.271 42.3442V40.0893H166.626V52.561H166.271V51.0245C166.271 49.7274 165.837 48.7297 164.968 48.0512C164.1 47.3728 162.837 47.0336 161.159 47.0336H159.935V57.2104C159.935 58.1084 160.054 58.6671 160.31 58.8866C160.567 59.1061 161.179 59.2258 162.165 59.2258H164.81V59.5651H153.165V59.2258H154.586C155.573 59.2258 156.205 59.1261 156.442 58.9066C156.678 58.6871 156.797 58.1283 156.797 57.2304V34.7415C156.797 33.8435 156.678 33.2848 156.442 33.0853C156.205 32.8658 155.593 32.766 154.586 32.766H153.165V32.4268H184.528C184.844 32.4268 185.061 32.4467 185.219 32.5066C185.357 32.5465 185.515 32.6463 185.673 32.7859H185.713L185.535 30.2118L185.89 30.1719L187.094 47.2131H186.344L186.147 44.5791C186.107 43.6014 185.87 42.7433 185.456 42.0249C185.042 41.3066 184.509 40.7279 183.818 40.3088C183.127 39.8898 182.377 39.5905 181.528 39.3909C180.699 39.1914 179.752 39.1116 178.725 39.1116H174.6V39.1515C175.192 39.7102 175.488 40.3687 175.488 41.127V48.9692H176.712C177.245 48.9692 177.719 48.9492 178.133 48.9093C178.548 48.8694 179.002 48.7696 179.495 48.61C179.989 48.4503 180.383 48.2308 180.699 47.9515C181.015 47.6721 181.291 47.273 181.508 46.7741C181.726 46.2753 181.824 45.6766 181.824 44.9782V43.4816H182.18V54.4367H181.824V53.6385C181.824 52.3415 181.39 51.3438 180.522 50.6653C179.653 49.9868 178.39 49.6277 176.712 49.6277H175.488V57.1705C175.488 58.0685 175.607 58.6272 175.863 58.8467C176.12 59.0662 176.732 59.1859 177.719 59.1859H180.364V59.5252H168.718V59.5052Z" fill="#77C6C4"/>
<path d="M180.64 59.7443H168.481V58.9062H170.139C171.403 58.9062 171.738 58.7266 171.817 58.6468C171.896 58.567 172.094 58.2677 172.094 57.1502V40.7674C172.094 39.65 171.896 39.3706 171.817 39.2908C171.738 39.211 171.403 39.0314 170.139 39.0314H169.291V38.1733H184.666C184.982 38.1733 185.259 38.2132 185.476 38.313C185.416 37.4749 185.199 36.7366 184.844 36.0981C184.469 35.4196 183.936 34.8808 183.305 34.4817C182.653 34.0826 181.903 33.7833 181.074 33.6037C180.245 33.4042 179.318 33.3244 178.311 33.3244H159.56C159.955 33.8432 160.172 34.4219 160.172 35.0804V46.0554H161.139C161.692 46.0554 162.146 46.0355 162.54 45.9956C162.935 45.9556 163.369 45.8559 163.843 45.6962C164.297 45.5366 164.672 45.3371 164.968 45.0976C165.264 44.8581 165.501 44.479 165.698 44.02C165.896 43.5611 165.995 42.9824 165.995 42.3239V39.8096H166.843V52.7801H165.995V50.9842C165.995 49.747 165.6 48.8491 164.791 48.2105C163.962 47.572 162.738 47.2327 161.139 47.2327H160.172V57.1502C160.172 58.2278 160.35 58.547 160.468 58.6268C160.586 58.7266 160.961 58.9062 162.165 58.9062H165.047V59.7443H152.889V58.9062H154.547C155.81 58.9062 156.145 58.7266 156.224 58.6468C156.303 58.567 156.501 58.2677 156.501 57.1502V34.7411C156.501 33.6237 156.303 33.3443 156.224 33.2645C156.145 33.1847 155.81 33.0051 154.547 33.0051H152.889V32.167H184.509C184.864 32.167 185.101 32.1869 185.278 32.2468C185.318 32.2668 185.357 32.2867 185.416 32.3067L185.278 29.9919L186.127 29.9121L186.147 30.1715L187.371 47.4922H186.127L185.91 44.6386C185.87 43.7008 185.653 42.8627 185.259 42.1842C184.884 41.5058 184.351 40.967 183.699 40.5679C183.048 40.1688 182.298 39.8695 181.489 39.6899C180.679 39.5103 179.752 39.4105 178.745 39.4105H175.153C175.548 39.9293 175.765 40.508 175.765 41.1665V48.7493H176.732C177.265 48.7493 177.719 48.7293 178.133 48.6894C178.528 48.6495 178.962 48.5498 179.436 48.3901C179.89 48.2504 180.265 48.0309 180.561 47.7715C180.857 47.5121 181.094 47.1529 181.291 46.694C181.489 46.235 181.587 45.6563 181.587 44.9978V43.2618H182.436V54.7157H181.587V53.6781C181.587 52.4409 181.193 51.5429 180.383 50.8844C179.554 50.2459 178.331 49.9067 176.732 49.9067H175.765V57.1901C175.765 58.2677 175.942 58.5869 176.061 58.6668C176.179 58.7665 176.554 58.9461 177.758 58.9461H180.64V59.7443ZM171.738 59.2454H176.159C175.982 59.1856 175.824 59.1058 175.725 59.0259C175.409 58.7466 175.271 58.1679 175.271 57.1702V49.3878H176.732C178.449 49.3878 179.791 49.747 180.699 50.4654C181.351 50.9842 181.765 51.6427 181.962 52.4808V46.2151C181.903 46.4545 181.844 46.674 181.745 46.8736C181.528 47.4123 181.232 47.8314 180.877 48.1507C180.522 48.45 180.087 48.6894 179.574 48.869C179.081 49.0287 178.607 49.1484 178.173 49.1883C177.738 49.2282 177.265 49.2482 176.712 49.2482H175.271V41.1665C175.271 40.4681 175.015 39.8894 174.462 39.3906L174.383 39.3108V38.9117L174.62 38.8717H178.745C179.791 38.8717 180.758 38.9715 181.607 39.1711C182.456 39.3706 183.265 39.6899 183.956 40.1089C184.666 40.5479 185.259 41.1466 185.673 41.9049C186.088 42.6631 186.344 43.5611 186.384 44.5788L186.561 46.9733H186.818L185.831 33.025H185.574L185.476 32.9652C185.338 32.8454 185.219 32.7656 185.101 32.7257C185.022 32.7058 184.864 32.6659 184.509 32.6659H156.126C156.382 32.7457 156.52 32.8255 156.599 32.9053C156.895 33.1647 157.034 33.7634 157.034 34.7611V57.1901C157.034 58.1878 156.895 58.7865 156.599 59.0659C156.501 59.1457 156.363 59.2255 156.185 59.2854H160.606C160.429 59.2255 160.271 59.1457 160.172 59.0659C159.856 58.7865 159.718 58.2078 159.718 57.2101V46.7937H161.179C162.896 46.7937 164.218 47.1529 165.126 47.8713C165.777 48.3702 166.212 49.0486 166.409 49.8867V43.621C166.35 43.8604 166.291 44.0799 166.192 44.2795C165.955 44.8182 165.679 45.2373 165.323 45.5366C164.988 45.8359 164.554 46.0754 164.021 46.235C163.527 46.3946 163.054 46.5144 162.619 46.5543C162.205 46.5942 161.731 46.6142 161.159 46.6142H159.698V35.1402C159.698 34.4418 159.442 33.8631 158.889 33.3643L158.81 33.2844V32.9253L159.047 32.8854H178.331C179.377 32.8854 180.344 32.9851 181.193 33.1847C182.061 33.3842 182.851 33.7035 183.561 34.1225C184.272 34.5615 184.864 35.1602 185.278 35.9185C185.693 36.6767 185.949 37.5747 185.989 38.5924V39.4504L185.574 39.0314C185.397 38.8518 185.081 38.752 184.666 38.752H171.659C171.876 38.8119 172.034 38.8917 172.133 38.9915C172.429 39.2708 172.567 39.8495 172.567 40.8473V57.23C172.567 58.2278 172.429 58.8264 172.133 59.1058C172.054 59.1257 171.916 59.1856 171.738 59.2454Z" fill="#045569"/>
<path d="M189.068 59.5052V59.166H190.489C191.476 59.166 192.107 59.0662 192.344 58.8467C192.581 58.6472 192.7 58.0884 192.7 57.1905V34.7016C192.7 33.8036 192.581 33.2649 192.344 33.0653C192.107 32.8658 191.496 32.766 190.489 32.766H189.068V32.4268H199.489V32.8458H198.088C197.081 32.8458 196.45 32.9456 196.213 33.1651C195.976 33.3646 195.858 33.9234 195.858 34.8213V57.2304C195.858 58.1283 195.976 58.6871 196.213 58.8866C196.45 59.0862 197.081 59.2059 198.088 59.2059H199.489V59.5451H189.068V59.5052Z" fill="#77C6C4"/>
<path d="M199.746 59.7443H188.831V58.9062H190.489C191.752 58.9062 192.088 58.7266 192.167 58.6468C192.246 58.567 192.443 58.2876 192.443 57.1702V34.7012C192.443 33.5838 192.265 33.3244 192.167 33.2445C192.088 33.1647 191.752 33.0051 190.489 33.0051H188.831V32.167H199.746V33.0849H198.108C196.825 33.0849 196.489 33.2645 196.391 33.3443C196.312 33.4241 196.114 33.7035 196.114 34.801V57.2101C196.114 58.3275 196.312 58.6069 196.391 58.6668C196.47 58.7466 196.825 58.9262 198.108 58.9262H199.746V59.7443ZM192.108 59.2455H196.47C196.272 59.1856 196.154 59.1058 196.075 59.0459C195.759 58.7865 195.621 58.1879 195.621 57.2101V34.801C195.621 33.8033 195.759 33.2246 196.075 32.9652C196.193 32.8654 196.391 32.7457 196.884 32.6659H192.048C192.285 32.7257 192.404 32.8055 192.483 32.8854C192.779 33.1448 192.917 33.7235 192.917 34.7212V57.2101C192.917 58.2078 192.779 58.7865 192.483 59.0459C192.423 59.1058 192.305 59.1856 192.108 59.2455Z" fill="#045569"/>
<path d="M0.236816 0.239258H28.5802V1.01749H23.7247C21.0207 1.01749 19.3627 1.25694 18.7508 1.7159C18.1587 2.19481 17.8429 3.432 17.8429 5.46738V49.9862C17.8429 53.2188 18.9877 55.6733 21.2773 57.3694C23.5668 59.0656 26.9223 59.9236 31.3435 59.9236C37.2846 59.9236 41.8045 58.8062 44.9428 56.5912C48.0811 54.3762 49.6404 51.1635 49.6404 46.9331V6.98393C49.6404 4.84878 49.2259 3.33223 48.3772 2.41431C47.5285 1.4964 45.8705 1.03744 43.3638 1.03744H39.2189V0.239258H60.9304V1.01749H58.0684C55.5025 1.01749 53.7853 1.47645 52.9563 2.37441C52.1076 3.27236 51.6931 4.80887 51.6931 6.96397V46.9132C51.6931 51.6225 49.9562 55.2143 46.5021 57.6687C43.048 60.1232 37.9951 61.3603 31.3633 61.3603C24.7314 61.3603 19.3824 60.0234 15.2967 57.3694C11.211 54.7155 9.15828 51.2234 9.15828 46.8932V5.46738C9.15828 3.47191 8.82274 2.23472 8.15166 1.75581C7.48057 1.2769 5.78312 1.03744 3.07905 1.03744H0.236816V0.239258Z" fill="#77C6C4"/>
<path d="M31.3633 61.6399C24.7117 61.6399 19.264 60.283 15.1586 57.6091C11.0137 54.9152 8.92146 51.3234 8.92146 46.9333V5.46757C8.92146 3.57188 8.6254 2.3746 8.01353 1.95556C7.5793 1.65624 6.37529 1.2771 3.07909 1.2771H0V0H28.8369V1.2771H23.7445C20.468 1.2771 19.3035 1.63628 18.9285 1.91565C18.5535 2.21497 18.0995 3.05306 18.0995 5.46757V49.9864C18.0995 53.1193 19.2246 55.5338 21.4352 57.1701C23.6656 58.8263 27.0012 59.6644 31.3633 59.6644C37.2254 59.6644 41.7453 58.5669 44.8244 56.3918C47.864 54.2367 49.4233 51.0639 49.4233 46.9533V6.98413C49.4233 4.9288 49.0286 3.4322 48.2193 2.57415C47.4298 1.7161 45.8113 1.2771 43.3836 1.2771H38.9821V0H61.187V1.2771H58.0685C55.5815 1.2771 53.9235 1.7161 53.134 2.55419C52.3445 3.41224 51.9498 4.88889 51.9498 6.98413V46.9333C51.9498 51.7025 50.1734 55.3941 46.66 57.8884C43.1467 60.3828 37.9952 61.6399 31.3633 61.6399ZM0.493444 0.778231H3.05935C5.84237 0.778231 7.53982 1.01769 8.27012 1.53651C9.02015 2.07528 9.39517 3.35238 9.39517 5.46757V46.9533C9.39517 51.1637 11.4282 54.6159 15.4152 57.21C19.4417 59.824 24.8104 61.161 31.3633 61.161C37.9162 61.161 42.9493 59.9238 46.364 57.5093C49.7391 55.1147 51.4563 51.5628 51.4563 46.9533V6.98413C51.4563 4.76916 51.9103 3.15283 52.7787 2.21497C53.6669 1.25714 55.4039 0.778231 58.0685 0.778231H60.6936V0.498866H39.4558V0.778231H43.3638C45.9692 0.778231 47.6667 1.25714 48.5549 2.23492C49.4431 3.19274 49.8773 4.78912 49.8773 6.98413V46.9333C49.8773 51.2236 48.2588 54.5361 45.081 56.7909C41.923 59.0258 37.3044 60.1633 31.3435 60.1633C26.8828 60.1633 23.4484 59.2853 21.1391 57.5692C18.7903 55.8331 17.6061 53.2789 17.6061 49.9664V5.46757C17.6061 3.33243 17.9416 2.05533 18.6127 1.53651C19.264 1.03764 20.9418 0.778231 23.7248 0.778231H28.3237V0.498866H0.493444V0.778231Z" fill="#045569"/>
<path d="M53.1143 60.6219V59.8835H56.2723C58.4829 59.8835 59.8448 59.6441 60.3778 59.1652C60.9107 58.6863 61.1673 57.4491 61.1673 55.4137V5.52708C61.1673 3.53161 60.9107 2.29442 60.3778 1.81551C59.8448 1.3366 58.4829 1.09714 56.2723 1.09714H53.1143V0.338867H76.0693C82.9577 0.338867 88.4843 2.03501 92.6884 5.40735C96.8926 8.77968 98.9848 13.2495 98.9848 18.7969C98.9848 24.2844 96.8926 28.7144 92.6884 32.1067C88.4843 35.499 82.9577 37.1752 76.0693 37.1752H68.2136V55.4337C68.2136 57.4291 68.49 58.6663 69.0426 59.1652C69.5953 59.664 70.9769 59.9035 73.1876 59.9035H75.4179V60.6418H53.1143V60.6219ZM66.7136 1.93524V2.3942C67.7202 3.63138 68.2136 5.34748 68.2136 7.58241V35.6586H73.3455C79.0891 35.6586 83.4709 34.2219 86.4711 31.3484C89.4712 28.4749 90.991 24.2844 90.991 18.7969C90.991 13.3094 89.4909 9.13887 86.4711 6.24544C83.4512 3.35202 79.0891 1.93524 73.3455 1.93524H66.7136Z" fill="#77C6C4"/>
<path d="M75.6548 60.8615H52.8577V59.6243H56.2526C58.9172 59.6243 59.8646 59.2651 60.2001 58.9658C60.5159 58.6665 60.9107 57.8085 60.9107 55.4139V5.52727C60.9107 3.15267 60.5356 2.29462 60.2001 2.01526C59.8646 1.71594 58.9172 1.35675 56.2526 1.35675H52.8577V0.0996094H76.0495C82.9577 0.0996094 88.6027 1.81571 92.8266 5.22795C97.0702 8.6402 99.2216 13.2098 99.2216 18.7971C99.2216 24.3445 97.0702 28.8742 92.8266 32.2865C88.6027 35.6987 82.9577 37.4148 76.0495 37.4148H68.4505V55.4139C68.4505 57.7885 68.865 58.6466 69.2005 58.9459C69.5558 59.2452 70.523 59.6243 73.1876 59.6243H75.6548V60.8615ZM53.3511 60.3627H75.1613V60.1232H73.1876C70.898 60.1232 69.4769 59.8638 68.8847 59.325C68.2729 58.7862 67.9768 57.5091 67.9768 55.4139V36.9159H76.0693C82.859 36.9159 88.4054 35.2198 92.5305 31.8874C96.636 28.5749 98.7282 24.1649 98.7282 18.7772C98.7282 13.3495 96.636 8.89961 92.5305 5.58714C88.4054 2.25471 82.859 0.558566 76.0693 0.558566H53.3708V0.837931H56.2723C58.5619 0.837931 59.9633 1.09734 60.5554 1.61616C61.1475 2.15494 61.4239 3.41208 61.4239 5.50732V55.3939C61.4239 57.5091 61.1475 58.7862 60.5554 59.325C59.983 59.8438 58.5816 60.1032 56.2723 60.1032H53.3708V60.3627H53.3511ZM73.3454 35.8983H67.957V7.5826C67.957 5.40755 67.4636 3.7114 66.5162 2.55403L66.457 2.49417V1.69598H73.3454C79.1286 1.69598 83.6091 3.17263 86.6487 6.086C89.6883 8.99938 91.2476 13.2896 91.2476 18.8171C91.2476 24.3445 89.708 28.6348 86.6487 31.5481C83.6091 34.4416 79.1286 35.8983 73.3454 35.8983ZM68.4505 35.3994H73.3454C79.0102 35.3994 83.3722 33.9626 86.3132 31.149C89.2541 28.3354 90.7541 24.1649 90.7541 18.7971C90.7541 13.4293 89.2541 9.25879 86.3132 6.44519C83.3722 3.63158 79.0102 2.19485 73.3454 2.19485H66.9504V2.31458C67.9373 3.57172 68.4505 5.34768 68.4505 7.60256V35.3994Z" fill="#045569"/>
<path d="M23.0734 11.8135C23.0734 11.8135 21.218 19.9749 27.5933 22.4892C27.5933 22.4892 22.8957 26.4003 25.8959 31.5287C25.8959 31.5287 15.573 33.6239 15.9678 62.179C15.9678 62.179 16.777 61.1613 17.8626 61.2611C17.8626 61.2611 14.4677 67.8262 15.1585 71.1187C15.1585 71.1187 16.1454 66.0502 27.3565 61.4806C27.3565 61.4806 46.1666 54.7958 40.7584 36.2978C40.7584 36.2978 46.1666 36.5572 46.4231 27.877C46.4231 27.877 45.9494 18.9373 33.7712 17.6402C33.791 17.6402 25.659 14.9464 23.0734 11.8135Z" fill="#FEFBEB"/>
<path d="M45.3968 33.524C46.2258 30.4111 46.206 27.0587 44.8836 24.3848C43.5612 21.6909 41.015 19.9349 38.232 18.8973C36.7911 18.3186 35.37 17.9594 33.791 17.6402C32.1133 17.2411 30.5343 16.6624 28.9947 15.944C25.9354 14.5272 22.9944 12.2923 21.2378 9.05965L23.8234 8.8202C23.4681 9.93766 23.1523 11.2347 23.0142 12.4719C22.8563 13.729 22.8365 14.9862 22.9944 16.1835C23.1326 17.4007 23.4879 18.5381 24.1195 19.5358C24.7314 20.5336 25.6196 21.3517 26.6854 21.9504L27.6328 22.4692L26.942 23.2075C26.4683 23.7263 25.9946 24.4048 25.659 25.1032C25.3038 25.8016 25.0669 26.5599 24.988 27.3381C24.8893 28.1163 24.9682 28.9345 25.2051 29.7127C25.4617 30.4909 25.8367 31.2492 26.3499 31.9277C25.7183 31.349 25.1656 30.6905 24.7511 29.9123C24.3563 29.134 24.0998 28.2361 24.0603 27.3182C24.0208 26.4002 24.1787 25.4823 24.4748 24.6243C24.7708 23.7463 25.1459 22.9481 25.7577 22.1499L26.0143 23.407C24.6722 22.8483 23.3695 21.9703 22.4418 20.7331C21.5141 19.4959 20.922 18.0592 20.6259 16.5826C20.3101 15.1259 20.2904 13.6293 20.3891 12.1925C20.5075 10.7358 20.7049 9.35897 21.1588 7.88233L22.1062 4.72949L23.7247 7.64287C25.1064 10.1172 27.5933 11.9132 30.2579 13.2701C31.5804 13.9685 33.0212 14.5073 34.4423 14.9064C35.9819 15.3055 37.6596 15.8043 39.1991 16.5027C40.7584 17.2011 42.2388 18.139 43.5217 19.3562C44.8047 20.5535 45.831 22.0701 46.4034 23.7263C47.5482 27.0787 46.9166 30.6705 45.3968 33.524Z" fill="#045569"/>
<path d="M32.133 39.1111C33.6331 41.0666 34.2055 43.8004 33.5739 46.2947C33.0015 48.809 31.5211 51.024 29.8434 52.8997C28.0868 54.7156 26.113 56.312 24.0208 57.6888C22.955 58.3274 21.9286 59.0857 20.8233 59.6444L17.5271 61.3804L15.9875 62.1786L15.9283 60.3628C15.8296 57.2299 15.9678 54.1569 16.3033 51.0639C16.6389 47.9709 17.1718 44.878 18.1192 41.8648C19.1061 38.8716 20.4285 35.7986 22.9155 33.3841C24.1392 32.1668 25.7775 31.2689 27.3762 30.8099C28.9552 30.331 30.6132 30.0916 32.3304 30.1714C34.0278 30.2312 35.8042 30.7301 37.3043 31.7478L37.8767 32.107C38.0543 32.2467 38.2122 32.4063 38.3701 32.5659C38.686 32.8852 39.0412 33.1646 39.3176 33.5038C39.811 34.2222 40.4229 34.9006 40.7387 35.6789L41.2913 36.8362C41.4492 37.2154 41.5479 37.6344 41.6664 38.0136L42.0216 39.2108C42.1203 39.6099 42.1598 40.009 42.2387 40.4081L42.4361 41.6054C42.5151 41.9646 42.5546 42.5033 42.5348 42.8825C42.5348 43.7006 42.4756 44.5188 42.3967 45.317C42.0216 48.5097 40.9953 51.6825 39.1794 54.3564L38.4886 55.3541C38.232 55.6734 37.9557 55.9727 37.6991 56.2721C37.1859 56.9106 36.5543 57.4095 35.9621 57.9682C35.37 58.507 34.6595 58.9061 34.0081 59.365C33.3173 59.7641 32.6067 60.1033 31.9159 60.4825L31.8764 60.5024L31.837 60.5224C30.3369 61.0412 28.8566 61.6598 27.3762 62.2784C25.8959 62.917 24.4353 63.5954 23.0142 64.3337C21.5931 65.0721 20.2114 65.8902 18.889 66.8281C17.606 67.7659 16.3231 68.8036 15.5336 70.2603C16.1454 68.7238 17.31 67.4666 18.5337 66.3891C19.7772 65.3115 21.0996 64.3337 22.501 63.4557C25.284 61.6997 28.1855 60.2031 31.2053 58.8861L31.1264 58.926C33.6726 57.5691 35.8042 55.5736 37.2846 53.1591C38.0149 51.9419 38.607 50.6448 39.0018 49.268C39.4163 47.9111 39.6926 46.4943 39.811 45.0575C39.8702 44.3392 39.9097 43.6208 39.8702 42.9224C39.8702 42.5433 39.8505 42.3238 39.7518 41.9446L39.5544 40.907C39.4755 40.5677 39.436 40.2086 39.3373 39.8693L39.0018 38.8716C38.8833 38.5523 38.8044 38.1931 38.6662 37.8938L38.2122 36.9959C37.9557 36.3573 37.5017 35.8984 37.1464 35.3596C36.949 35.1201 36.6924 34.9405 36.4753 34.721L36.1398 34.4018L35.745 34.1623C34.7187 33.4838 33.4949 33.1247 32.1922 33.0848C30.8895 33.0448 29.5276 33.2444 28.2249 33.6435C26.9223 34.0226 25.8367 34.6213 24.8893 35.5192C22.9747 37.3351 21.7115 39.9891 20.8035 42.7428C18.9877 48.2902 18.3561 54.3963 18.1784 60.3228L16.5994 59.3052L19.8759 57.7687C20.4285 57.5292 20.9615 57.2299 21.4746 56.9306L23.0537 56.0526C24.1392 55.5138 25.0669 54.7755 26.0735 54.117C26.5867 53.7977 27.0407 53.3986 27.4946 53.0194C27.9486 52.6403 28.4223 52.2612 28.8566 51.8621C30.5737 50.2258 32.0541 48.3102 32.8238 46.0553C33.0607 45.4965 33.0804 44.8979 33.2186 44.3192C33.2581 44.0199 33.2383 43.7206 33.2581 43.4213C33.2778 43.1219 33.2581 42.8226 33.2186 42.5233C33.1199 41.3659 32.7646 40.1687 32.133 39.1111Z" fill="#045569"/>
<path d="M18.0205 44.539C18.7113 43.9802 19.3627 43.5612 20.0732 43.1621C20.7838 42.783 21.5141 42.4437 22.2641 42.1843C23.0142 41.905 23.7839 41.7254 24.5537 41.6256C25.3235 41.5059 26.113 41.5258 26.863 41.5857C26.113 41.6855 25.363 41.8451 24.6524 42.1045C23.9418 42.3639 23.2707 42.6832 22.6589 43.0823C22.0273 43.4614 21.4351 43.9004 20.8825 44.3793C20.3496 44.8582 19.7969 45.397 19.4021 45.9158L18.0205 44.539Z" fill="#045569"/>
<path d="M17.5271 53.2386C17.5271 53.2386 20.7838 47.8509 25.7775 47.332L17.5271 53.2386Z" fill="#045569"/>
<path d="M30.9291 18.7578C31.5015 20.7333 32.6858 22.0104 34.0477 22.7887C34.7187 23.2077 35.528 23.4472 36.2978 23.7066L37.5412 24.0059C37.9755 24.0657 38.39 24.1456 38.8242 24.2254L38.9229 24.2453C39.8703 24.4648 40.6401 24.7642 41.4493 25.1433C42.2388 25.5224 43.0086 26.0014 43.6994 26.6C44.3902 27.1986 45.0218 27.897 45.4363 28.7152C45.8508 29.5533 46.0482 30.4712 45.9298 31.3292C45.4758 30.5909 44.9626 30.0122 44.3902 29.5533C43.7981 29.0943 43.1665 28.7551 42.4954 28.4558C41.8441 28.1565 41.1335 27.897 40.4427 27.6775C39.7519 27.458 38.9821 27.2585 38.3505 27.1388L38.4492 27.1587C37.936 27.0789 37.4228 26.9991 36.9096 26.8993C36.3965 26.7796 35.8833 26.6199 35.3701 26.4404C34.3635 26.0213 33.3766 25.5224 32.5476 24.7243C31.7186 23.966 31.0673 22.9682 30.7712 21.8907C30.5146 20.8331 30.5146 19.7156 30.9291 18.7578Z" fill="#045569"/>
<path d="M38.7452 29.3137C39.7916 29.3137 40.64 28.456 40.64 27.3981C40.64 26.3401 39.7916 25.4824 38.7452 25.4824C37.6987 25.4824 36.8503 26.3401 36.8503 27.3981C36.8503 28.456 37.6987 29.3137 38.7452 29.3137Z" fill="#045569"/>
<path d="M20.922 58.0078C20.0733 60.4223 19.0666 62.5774 18.1192 64.7724L16.6784 68.045C16.1652 69.1425 15.731 70.26 15.1191 71.4173C14.7441 68.8631 15.3165 66.269 16.3231 63.9543C16.8363 62.7969 17.4679 61.6994 18.2179 60.6817C18.9877 59.684 19.8364 58.7262 20.922 58.0078Z" fill="#045569"/>
<path d="M9.8294 82.0137H8.13196V73.1738H12.0992C13.0072 73.1738 13.7375 73.4532 14.3099 74.0119C14.8823 74.5707 15.1783 75.2691 15.1783 76.1072C15.1783 76.9253 14.902 77.6237 14.3296 78.2024C13.777 78.7811 13.0269 79.0605 12.0992 79.0605H9.8294V82.0137ZM9.8294 74.5906V77.6437H11.8624C12.3953 77.6437 12.8098 77.504 13.0861 77.2246C13.3625 76.9453 13.5204 76.5661 13.5204 76.1271C13.5204 75.6682 13.3822 75.289 13.0861 75.0097C12.7901 74.7303 12.3953 74.5906 11.8821 74.5906H9.8294Z" fill="#045569"/>
<path d="M14.823 82.0137L18.8495 73.1738H20.6259L24.6524 82.0137H22.8563L22.0273 80.1979H17.4481L16.6191 82.0137H14.823ZM18.0797 78.7811H21.4154L19.7377 75.1294L18.0797 78.7811Z" fill="#045569"/>
<path d="M25.8959 82.0137V73.1738H32.6264V74.5906H27.6131V76.7856H30.0605C30.5145 76.7856 30.9093 76.8255 31.2645 76.8854C31.6198 76.9652 31.9554 77.0849 32.2712 77.2446C32.587 77.4242 32.8436 77.6836 33.0015 78.0228C33.1791 78.382 33.2581 78.801 33.2581 79.2999C33.2581 80.0981 32.9817 80.7566 32.4685 81.2555C31.9554 81.7543 31.1659 81.9938 30.1395 81.9938H25.8959V82.0137ZM30.0803 78.2024H27.6131V80.597H30.1395C31.0869 80.597 31.5409 80.1779 31.5409 79.3199C31.5409 78.5815 31.0672 78.2024 30.0803 78.2024Z" fill="#045569"/>
<path d="M34.4622 77.5635C34.4622 76.2864 34.9161 75.2088 35.8241 74.3508C36.732 73.4927 37.8373 73.0537 39.14 73.0537C40.4427 73.0537 41.548 73.4927 42.4559 74.3508C43.3639 75.2288 43.8179 76.2864 43.8179 77.5635C43.8179 78.8406 43.3639 79.9181 42.4559 80.8161C41.548 81.714 40.4427 82.153 39.14 82.153C37.8373 82.153 36.732 81.714 35.8241 80.8161C34.9161 79.9181 34.4622 78.8406 34.4622 77.5635ZM37.0281 75.4084C36.4557 76.007 36.1596 76.7254 36.1596 77.5635C36.1596 78.4016 36.4557 79.1399 37.0281 79.7385C37.6005 80.3571 38.311 80.6564 39.1203 80.6564C39.9295 80.6564 40.6401 80.3571 41.2125 79.7385C41.7849 79.1199 42.0809 78.4016 42.0809 77.5635C42.0809 76.7254 41.7849 76.007 41.2125 75.4084C40.6401 74.8097 39.9295 74.5104 39.1203 74.5104C38.311 74.5304 37.6202 74.8297 37.0281 75.4084Z" fill="#045569"/>
<path d="M44.2521 74.5906V73.1738H51.5353V74.5906H48.7523V82.0137H47.0548V74.5906H44.2521Z" fill="#045569"/>
<path d="M50.6273 82.0137L54.6538 73.1738H56.4302L60.4567 82.0137H58.6606L57.8316 80.1979H53.2524L52.4235 82.0137H50.6273ZM53.884 78.7811H57.2197L55.542 75.1294L53.884 78.7811Z" fill="#045569"/>
<path d="M61.7594 82.0137V73.1738H63.4766V79.3996L67.9373 73.1738H69.7137V82.0137H67.9965L68.0163 75.8477L63.595 82.0137H61.7594ZM63.8516 70.5996H64.6608C64.6608 70.8391 64.7595 71.0386 64.9569 71.1783C65.1543 71.3379 65.3911 71.3978 65.6477 71.3978C65.9043 71.3978 66.1412 71.318 66.3386 71.1783C66.5359 71.0187 66.6346 70.8391 66.6346 70.5996H67.4636C67.4636 71.1384 67.3057 71.5574 66.9702 71.8767C66.6346 72.196 66.2004 72.3556 65.6675 72.3556C65.1346 72.3556 64.7003 72.196 64.3648 71.8767C64.0095 71.5574 63.8516 71.1384 63.8516 70.5996Z" fill="#045569"/>
<path d="M75.0232 82.0137V73.1738H79.4839C80.53 73.1738 81.2998 73.3933 81.8327 73.8323C82.3459 74.2713 82.6222 74.8101 82.6222 75.4686C82.6222 75.8877 82.5235 76.2668 82.3064 76.606C82.0893 76.9453 81.813 77.2047 81.438 77.3843C81.8919 77.5239 82.267 77.7634 82.5433 78.1226C82.8196 78.4818 82.9578 78.9208 82.9578 79.4396C82.9578 80.2178 82.6814 80.8364 82.1288 81.3153C81.5761 81.7942 80.7866 82.0337 79.7603 82.0337H75.0232V82.0137ZM79.405 74.5906H76.7206V76.8455H79.405C80.4116 76.8455 80.905 76.4663 80.905 75.6881C80.905 75.3489 80.7866 75.0895 80.53 74.8899C80.2932 74.6904 79.9182 74.5906 79.405 74.5906ZM76.7206 80.597H79.6616C80.155 80.597 80.5498 80.4772 80.8261 80.2577C81.1024 80.0382 81.2406 79.719 81.2406 79.3398C81.2406 78.5616 80.7274 78.1625 79.701 78.1625H76.7601V80.597H76.7206Z" fill="#045569"/>
<path d="M91.0305 79.7988L87.2014 73.1738H89.116L91.899 78.0029L93.9517 73.1738H95.7873L92.6688 80.4573C92.1951 81.5947 91.3661 82.1534 90.2016 82.1534C89.7278 82.1534 89.3134 82.0736 88.9581 81.914C88.6028 81.7543 88.2475 81.5149 87.8922 81.1756L88.6817 80.0781C88.8594 80.2378 88.9976 80.3376 89.0765 80.3974C89.1555 80.4573 89.2739 80.5171 89.4318 80.577C89.5897 80.6369 89.7476 80.6768 89.9252 80.6768C90.4779 80.7167 90.8134 80.4174 91.0305 79.7988Z" fill="#045569"/>
<path d="M95.2346 83.4704V80.597C95.6688 80.5371 96.0439 80.2976 96.3794 79.8586C96.715 79.4196 96.9715 78.9208 97.1492 78.362C97.3268 77.8033 97.465 77.1648 97.5834 76.4464C97.6821 75.728 97.7611 75.1094 97.7808 74.5906C97.8005 74.0718 97.8203 73.5929 97.8203 73.1738H103.268V80.597H104.511V83.4704H102.794V82.0137H96.9518V83.4704H95.2346ZM97.8795 80.597H101.531V74.5906H99.4585C99.419 75.1893 99.3796 75.7081 99.3401 76.167C99.2809 76.626 99.2019 77.1648 99.1032 77.7434C98.9848 78.3421 98.8269 78.8809 98.6295 79.3598C98.4124 79.8586 98.1755 80.2777 97.8795 80.597Z" fill="#045569"/>
<path d="M105.163 77.5635C105.163 76.2864 105.617 75.2088 106.525 74.3508C107.433 73.4927 108.538 73.0537 109.841 73.0537C111.143 73.0537 112.249 73.4927 113.157 74.3508C114.064 75.2288 114.518 76.2864 114.518 77.5635C114.518 78.8406 114.064 79.9181 113.157 80.8161C112.249 81.714 111.143 82.153 109.841 82.153C108.538 82.153 107.433 81.714 106.525 80.8161C105.617 79.9181 105.163 78.8406 105.163 77.5635ZM107.729 75.4084C107.156 76.007 106.86 76.7254 106.86 77.5635C106.86 78.4016 107.156 79.1399 107.729 79.7385C108.301 80.3571 109.012 80.6564 109.821 80.6564C110.63 80.6564 111.341 80.3571 111.913 79.7385C112.485 79.1199 112.781 78.4016 112.781 77.5635C112.781 76.7254 112.485 76.007 111.913 75.4084C111.341 74.8097 110.63 74.5104 109.821 74.5104C109.012 74.5304 108.321 74.8297 107.729 75.4084Z" fill="#045569"/>
<path d="M116.137 82.0137V73.1738H120.598C121.644 73.1738 122.414 73.3933 122.946 73.8323C123.46 74.2713 123.736 74.8101 123.736 75.4686C123.736 75.8877 123.637 76.2668 123.42 76.606C123.203 76.9453 122.927 77.2047 122.552 77.3843C123.006 77.5239 123.381 77.7634 123.657 78.1226C123.933 78.4818 124.072 78.9208 124.072 79.4396C124.072 80.2178 123.795 80.8364 123.243 81.3153C122.69 81.7942 121.9 82.0337 120.874 82.0337H116.137V82.0137ZM120.538 74.5906H117.854V76.8455H120.538C121.545 76.8455 122.039 76.4663 122.039 75.6881C122.039 75.3489 121.92 75.0895 121.664 74.8899C121.407 74.6904 121.032 74.5906 120.538 74.5906ZM117.854 80.597H120.795C121.289 80.597 121.683 80.4772 121.96 80.2577C122.236 80.0382 122.374 79.719 122.374 79.3398C122.374 78.5616 121.861 78.1625 120.835 78.1625H117.894V80.597H117.854Z" fill="#045569"/>
<path d="M125.256 77.5635C125.256 76.2864 125.71 75.2088 126.618 74.3508C127.526 73.4927 128.631 73.0537 129.934 73.0537C131.236 73.0537 132.342 73.4927 133.25 74.3508C134.157 75.2288 134.611 76.2864 134.611 77.5635C134.611 78.8406 134.157 79.9181 133.25 80.8161C132.342 81.6941 131.236 82.153 129.934 82.153C128.631 82.153 127.526 81.714 126.618 80.8161C125.71 79.9181 125.256 78.8406 125.256 77.5635ZM127.841 75.4084C127.269 76.007 126.973 76.7254 126.973 77.5635C126.973 78.4016 127.269 79.1399 127.841 79.7385C128.414 80.3571 129.124 80.6564 129.934 80.6564C130.743 80.6564 131.453 80.3571 132.026 79.7385C132.598 79.1199 132.894 78.4016 132.894 77.5635C132.894 76.7254 132.598 76.007 132.026 75.4084C131.453 74.8097 130.743 74.5104 129.934 74.5104C129.124 74.5304 128.414 74.8297 127.841 75.4084Z" fill="#045569"/>
<path d="M135.204 82.0737V80.617C135.44 80.617 135.638 80.5771 135.835 80.4774C136.013 80.3776 136.171 80.2379 136.269 80.0583C136.388 79.8787 136.467 79.6792 136.546 79.4597C136.625 79.2402 136.684 78.9808 136.723 78.6615C136.763 78.3422 136.802 78.0429 136.802 77.7635C136.822 77.5041 136.822 77.1649 136.842 76.7658L136.921 73.2139H143.099V82.0538H141.382L141.401 74.6307H138.599L138.539 76.8057C138.52 77.3445 138.5 77.8234 138.46 78.2424C138.421 78.6615 138.362 79.0805 138.263 79.4996C138.164 79.9386 138.046 80.2978 137.888 80.5771C137.73 80.8765 137.533 81.1359 137.296 81.3753C137.059 81.6148 136.763 81.7944 136.408 81.9141C136.072 82.0139 135.658 82.0737 135.204 82.0737Z" fill="#045569"/>
<path d="M145.211 82.0137V73.1738H146.928L146.908 76.7856H149.356C149.81 76.7856 150.204 76.8255 150.56 76.8854C150.915 76.9652 151.25 77.0849 151.566 77.2446C151.882 77.4242 152.139 77.6836 152.297 78.0228C152.474 78.382 152.553 78.801 152.553 79.2999C152.553 80.0981 152.277 80.7566 151.764 81.2555C151.25 81.7543 150.461 81.9938 149.435 81.9938H145.211V82.0137ZM146.928 78.2024V80.597H149.454C149.928 80.597 150.303 80.4972 150.52 80.2777C150.757 80.0582 150.875 79.7389 150.856 79.3398C150.856 78.5815 150.362 78.2024 149.375 78.2024H146.928Z" fill="#045569"/>
<path d="M158.435 82.1331C157.112 82.1331 156.007 81.714 155.099 80.8959C154.211 80.0777 153.757 78.9802 153.757 77.6233C153.757 76.2864 154.211 75.1889 155.119 74.3308C156.027 73.4927 157.132 73.0537 158.435 73.0537C159.205 73.0537 159.896 73.2134 160.527 73.4927C161.159 73.792 161.652 74.1911 162.047 74.69L160.902 75.6079C160.271 74.8496 159.461 74.4505 158.494 74.4505C157.645 74.4505 156.935 74.7499 156.343 75.3285C155.751 75.9072 155.474 76.6655 155.474 77.6034C155.474 78.5213 155.77 79.2796 156.343 79.8383C156.915 80.397 157.645 80.6963 158.494 80.6963C159.481 80.6963 160.29 80.3172 160.902 79.539L162.007 80.397C161.672 80.8759 161.198 81.295 160.567 81.6143C159.955 81.9734 159.244 82.1331 158.435 82.1331Z" fill="#045569"/>
<path d="M162.797 74.5906V73.1738H170.08V74.5906H167.297L167.277 82.0137H165.6V74.5906H162.797Z" fill="#045569"/>
<path d="M171.383 82.0137V73.1738H175.844C176.89 73.1738 177.66 73.3933 178.192 73.8323C178.706 74.2713 178.982 74.8101 178.982 75.4686C178.982 75.8877 178.883 76.2668 178.666 76.606C178.449 76.9453 178.173 77.2047 177.798 77.3843C178.252 77.5239 178.627 77.7634 178.903 78.1226C179.179 78.4818 179.318 78.9208 179.318 79.4396C179.318 80.2178 179.041 80.8364 178.489 81.3153C177.936 81.7942 177.146 82.0337 176.12 82.0337H171.383V82.0137ZM175.784 74.5906H173.1V76.8455H175.784C176.791 76.8455 177.285 76.4663 177.285 75.6881C177.285 75.3489 177.166 75.0895 176.909 74.8899C176.653 74.6904 176.278 74.5906 175.784 74.5906ZM173.1 80.597H176.041C176.534 80.597 176.929 80.4772 177.206 80.2577C177.482 80.0382 177.62 79.719 177.62 79.3398C177.62 78.5616 177.107 78.1625 176.081 78.1625H173.1V80.597Z" fill="#045569"/>
<path d="M180.956 82.0137V73.1738H182.673V79.3997L187.153 73.1738H188.93V82.0137H187.213V75.8478L182.791 82.0137H180.956Z" fill="#045569"/>
<path d="M191.022 73.1738H197.674V74.5707H192.739V76.9054H197.022V78.2623H192.739V80.597H197.674V81.9938H191.022V73.1738Z" fill="#045569"/>
</g>
<defs>
<clipPath id="clip0_16_110">
<rect width="199.746" height="88" fill="white"/>
</clipPath>
</defs>
</svg>
