<svg width="220" height="225" viewBox="0 0 220 225" fill="none" xmlns="http://www.w3.org/2000/svg">
<path d="M216.054 142.574C214.89 140.916 214.101 139.17 213.838 137.144C213.622 135.503 213.2 134.013 212.227 132.652C210.226 129.849 207.141 128.296 203.801 127.807C202.661 127.639 201.378 127.295 200.509 128.264C199.975 128.864 199.448 130.234 199.528 131.042C199.616 131.899 200.572 133.092 200.891 133.885C201.29 134.878 201.601 135.903 201.832 136.944C202.31 139.074 202.438 141.252 202.374 143.423C201.266 143.319 200.301 142.838 199.265 142.438C198.253 142.053 197.153 141.925 196.116 141.581C193.812 140.828 191.421 140.364 189.117 139.587C184.581 138.057 180.22 136.039 175.461 135.327C174.305 135.158 173.173 134.894 172.025 134.702C170.949 134.526 169.881 134.59 168.805 134.494C166.285 134.262 163.918 133.325 161.454 132.836C160.019 132.548 158.545 132.34 157.102 132.019C156.424 131.843 155.747 131.659 155.069 131.459C154.854 131.387 154.638 131.315 154.423 131.234C152.853 130.618 152.239 129.225 150.445 129.088C149.64 129.032 148.787 128.968 147.982 129C146.89 129.04 145.901 129.441 144.793 129.369C144.06 129.321 143.342 129.241 142.625 129.136C142.505 128.808 142.338 128.504 142.075 128.232C140.991 127.102 139.165 127.11 137.722 127.239C136.813 127.319 135.905 127.479 135.004 127.647C133.904 127.295 132.867 126.798 131.903 126.005C131.201 125.429 130.747 124.684 130.101 124.075C129.487 123.491 128.674 123.138 127.901 122.826C127.893 122.826 127.885 122.818 127.869 122.818C127.789 120.744 127.574 118.646 127.638 116.58C127.709 114.29 129.798 111.935 131.05 110.109C132.333 108.236 133.625 106.386 134.9 104.512C136.192 102.614 137.611 100.508 139.301 98.9383C140.704 97.625 142.441 97.0244 144.267 96.568C146.148 96.0955 148.022 95.4789 149.927 95.1586C154.208 94.4459 158.321 93.0685 162.411 91.6431C166.556 90.1936 170.614 88.4319 174.265 85.9574C175.15 85.3568 175.963 84.6201 176.864 84.0515C177.797 83.4589 178.905 83.2267 179.941 82.9144C181.91 82.3138 183.648 81.2567 185.45 80.2958C187.387 79.2628 189.563 78.8624 191.429 77.6852C193.135 76.6041 194.625 75.2267 196.371 74.2017C198.404 73.0165 200.509 71.9275 202.478 70.6382C203.355 70.0616 204.24 69.5251 205.188 69.0526C206.217 68.5481 207.261 68.3719 208.337 68.0196C209.979 67.491 211.773 66.7463 213.176 65.7373C215.743 63.8955 215.679 60.7643 216.277 57.9375C216.652 56.1678 217.281 54.4461 217.672 52.6763C218.111 50.7143 218.111 48.5362 218.023 46.5262C217.999 45.9896 217.816 44.8685 217.313 44.388C217.768 43.0027 217.832 41.7614 217.784 40.296C217.752 39.2629 217.895 37.9817 216.867 37.349C216.15 36.9086 215.408 37.2529 215.01 37.9416C214.97 38.0137 214.938 38.0778 214.906 38.1498C214.842 38.0938 214.762 38.0457 214.675 38.0057C213.67 37.5492 213.017 38.8705 212.706 39.5913C212.004 41.2009 211.542 42.8986 210.96 44.5482C210.561 45.6773 210.091 46.7824 209.644 47.8955C209.302 48.7684 209.07 49.7214 208.608 50.5382C207.325 52.8284 205.085 54.4701 204.184 56.9766C203.937 57.6653 203.753 58.4661 203.331 59.0667C202.844 59.7633 202.015 60.3479 201.322 60.8044C199.847 61.7894 198.197 62.454 196.515 62.9745C192.632 64.1918 188.583 64.7763 184.629 65.6732C182.46 66.1617 180.3 66.7223 178.203 67.467C176.139 68.1957 174.337 69.3008 172.432 70.3819C168.334 72.7122 163.766 74.2257 159.262 75.5551C154.391 76.9885 149.401 77.8694 144.506 79.1907C142.776 79.6552 141.11 80.2477 139.46 80.9124C140.257 80.1436 140.664 79.2307 141.142 78.0536C141.804 76.4279 141.907 74.7463 142.744 73.1767C143.135 72.448 143.494 71.7593 143.653 70.9505C143.725 70.5741 143.757 70.1897 143.845 69.8134C143.876 69.6772 143.9 69.5651 143.924 69.485C143.988 69.445 144.044 69.3809 144.084 69.3008C144.1 69.2688 144.116 69.2288 144.124 69.1967C144.219 69.1567 144.371 69.1487 144.626 69.1247C145.981 68.9805 147.464 68.1557 147.703 66.6742C147.982 64.9445 146.037 63.9595 144.937 63.0146C143.414 61.7013 141.923 60.3479 140.329 59.1227C137.339 56.8404 133.928 55.1908 130.085 55.7834C129.097 55.9355 128.068 56.1918 127.159 56.6162C126.155 57.0727 125.406 57.9215 124.433 58.426C122.799 59.2829 121.436 59.7073 120.351 61.3249C119.546 62.5261 118.773 63.9275 118.43 65.3449C117.992 67.1227 117.816 68.9645 117.402 70.7503C117.075 72.1437 117.091 73.6091 116.66 74.9785C115.688 78.1016 112.077 76.2438 110.251 75.0586C109.047 74.2818 107.915 73.4089 106.64 72.7523C105.516 72.1677 104.336 71.7993 103.14 71.3909C100.501 70.486 98.9549 68.0996 97.0974 66.1537C95.232 64.1998 93.2151 63.1908 90.8236 62.0136C88.6153 60.9245 86.5267 59.2909 84.7171 57.6252C84.7011 57.6092 84.6772 57.5932 84.6613 57.5772C83.9757 56.6563 83.3459 56.0076 82.4132 55.3269C81.066 54.358 79.9738 53.0607 78.8817 51.8274C76.7851 49.4651 74.2341 47.5752 72.1375 45.2129C71.0613 43.9957 70.0249 42.8986 69.0683 41.5612C68.2312 40.3921 67.3145 39.271 66.3339 38.2139C64.4366 36.1719 62.3081 34.3781 60.1478 32.6403C57.9395 30.8706 55.6596 29.1809 53.7224 27.1068C52.7578 26.0738 51.7374 24.5603 51.4265 23.1589C51.0598 21.5173 51.299 19.9157 51.6577 18.2981C51.9447 16.9928 52.2795 15.6234 52.1201 14.2701C51.9447 12.8046 51.562 11.3151 51.2033 9.8897C50.7409 8.02384 50.3025 4.42025 47.9348 3.99583C46.1093 3.6675 45.6071 6.23006 45.5672 7.54336C45.5592 7.8797 45.5672 8.20802 45.5831 8.54436C45.4556 8.36818 45.3201 8.19201 45.1686 8.03185C43.917 6.71053 42.7212 5.43727 41.6131 3.97181C40.6884 2.7546 38.6954 -0.624769 36.6785 0.0879408C35.9132 0.360212 35.6183 1.06491 35.5944 1.88973C35.2197 1.52137 34.8131 1.20906 34.3508 0.984834C33.2586 0.456308 31.6323 0.936786 31.4091 2.25009C31.2736 3.05089 31.5606 3.85169 31.9432 4.64448C31.457 4.33217 30.9228 4.14798 30.3648 4.23607C29.3524 4.39623 29.0734 5.48531 29.185 6.38221C29.3604 7.79962 30.4366 9.16097 31.2417 10.2821C31.4012 10.4983 31.5606 10.7225 31.72 10.9387C31.5207 10.8507 31.3135 10.7706 31.1062 10.7145C29.6314 10.2981 28.7545 11.4513 29.177 12.8687C29.4799 13.8937 30.2612 14.7906 30.9149 15.6154C31.7679 16.7045 32.6846 17.7455 33.6413 18.7465C35.2675 20.4682 36.9974 22.0938 38.6077 23.8316C40.2579 25.6174 41.7646 27.5313 42.8647 29.7174C43.3749 30.7345 43.6858 31.8396 44.2598 32.8165C44.6823 33.5452 45.0729 34.274 45.4078 35.0507C46.5079 37.6373 48.3892 40.0237 50.0474 42.2739C51.6737 44.4841 53.4115 46.6223 55.2451 48.6643C57.0945 50.7304 59.2868 52.5402 61.0805 54.6463C61.79 55.4791 62.2444 56.5041 62.9858 57.3289C64.046 58.5141 65.2338 59.6032 66.326 60.7643C68.4385 62.9986 70.4953 65.2808 72.5998 67.5151C74.6725 69.7173 76.8488 71.7353 79.081 73.7613C81.2493 75.7312 83.601 77.8053 85.0439 80.3919C86.718 83.3869 86.2716 86.1977 85.6737 89.4249C84.5736 95.3428 82.9633 101.349 82.6524 107.371C82.3016 114.29 83.4416 121.297 84.749 128.071C86.0006 134.55 87.5391 140.972 88.7349 147.459C88.6393 147.579 88.5835 147.731 88.6153 147.923C88.8705 149.236 88.9661 150.566 88.7349 151.887C88.5675 152.864 87.8501 153.945 87.874 154.898C87.7384 155.475 87.6507 156.059 87.6348 156.644C87.6189 157.308 87.8421 157.965 88.6074 157.965C88.9183 157.965 89.2372 157.829 89.5321 157.653C89.5321 157.653 89.5321 157.653 89.5401 157.653C90.2177 158.181 90.5206 158.598 90.7678 159.431C91.0388 160.351 91.2062 161.296 91.3178 162.249C91.3019 162.289 91.278 162.329 91.262 162.378C91.0069 163.074 91.2301 163.603 91.5171 164.163C91.5968 165.044 91.6766 165.933 91.8121 166.806C91.9237 167.519 92.0991 168.311 92.41 168.968C92.7528 169.689 93.263 169.889 93.8688 170.321C94.8892 171.05 94.674 172.804 94.674 173.933C94.674 175.27 94.5703 176.608 94.7298 177.937C95.0088 180.315 95.4313 182.686 95.806 185.056C96.6032 190.069 97.2808 195.082 98.349 200.055C98.8831 202.529 99.2578 205.044 99.8238 207.502C100.063 208.535 100.414 209.512 100.757 210.505C101.187 211.739 101.243 213.076 101.418 214.373C101.482 214.838 101.586 215.27 101.721 215.695C99.0107 217.072 96.0292 217.897 92.9361 218.305C89.6995 218.73 86.4311 218.77 83.1785 218.994C81.5602 219.106 79.9579 219.346 78.3396 219.442C76.235 219.57 74.1225 219.554 72.0179 219.546C56.2336 219.474 40.4572 218.834 24.6649 219.114C16.5655 219.258 8.35445 219.442 0.350682 220.812C-0.3349 220.932 -0.0319687 221.973 0.645641 221.853C7.83628 220.628 15.2103 220.411 22.4806 220.243C31.2258 220.043 39.9709 220.123 48.7081 220.259C56.106 220.371 63.5039 220.571 70.9098 220.628C73.2216 220.644 75.5335 220.668 77.8453 220.555C78.8578 220.507 79.8542 220.379 80.8587 220.275C84.1112 219.947 87.3797 219.915 90.6402 219.643C94.6341 219.306 98.5802 218.473 102.12 216.728C102.566 217.705 103.18 218.602 103.882 219.498C105.061 221.004 106.456 222.605 108.011 223.727C110.745 225.705 114.261 225.128 116.995 223.47C118.534 222.533 119.738 221.316 120.75 219.835C122.057 217.921 122.982 215.799 124.696 214.205C126.211 212.812 127.598 211.562 128.714 209.809C129.965 207.839 131.456 206.069 132.708 204.091C135.243 200.079 137.196 195.747 139.444 191.583C141.652 187.499 144.171 183.39 147.456 180.083C150.884 176.64 155.268 174.381 159.446 172.035C161.431 170.922 163.392 169.769 165.297 168.536C166.963 167.455 169.155 166.317 170.383 164.716C171.22 163.619 171.882 162.097 171.22 160.752C170.51 159.302 168.645 159.078 167.218 159.286C163.097 159.903 159.94 163.547 155.643 163.475C151.601 163.411 148.014 160.688 143.916 160.904C143.063 160.952 141.939 161.128 141.078 161.593C141.333 161.393 141.581 161.192 141.82 160.976C141.939 161 142.067 160.984 142.186 160.92C142.465 160.776 142.784 160.624 142.912 160.319C142.92 160.295 142.928 160.279 142.928 160.255C143.406 159.775 143.845 159.262 144.267 158.734C145.957 157.228 147.687 156.275 149.895 155.699C152.303 155.066 154.742 154.546 157.182 154.033C159.661 153.513 162.148 153 164.611 152.384C165.767 152.095 166.915 151.783 168.055 151.447C169.347 151.062 170.686 150.39 172.025 150.245C174.528 149.989 176.657 151.423 178.921 152.215C181.057 152.968 183.273 153.449 185.522 153.745C190.719 154.418 196.084 154.129 201.274 153.521C204.16 153.176 206.639 152.448 209.485 153.537C211.279 154.225 212.825 155.058 214.707 155.306C214.802 155.355 214.922 155.379 215.049 155.355C215.065 155.355 215.073 155.347 215.089 155.347C215.161 155.355 215.225 155.363 215.297 155.363C215.472 155.371 215.599 155.314 215.687 155.218C217.656 154.706 219.673 153.224 219.92 151.15C219.928 151.11 219.928 151.07 219.92 151.03C220.422 147.739 217.855 145.136 216.054 142.574ZM146.236 130.41C147.137 130.266 147.942 130.081 148.867 130.121C148.955 130.121 149.05 130.129 149.154 130.121C148.404 131.627 147.615 133.212 146.491 134.462C145.431 135.647 144.658 135.447 143.988 134.013C143.502 132.956 143.239 131.771 143 130.634C142.984 130.554 142.968 130.466 142.952 130.386C144.068 130.514 145.24 130.57 146.236 130.41ZM140.225 128.416C140.64 128.528 140.943 128.696 141.166 128.912C140.074 128.728 138.99 128.512 137.882 128.312C137.874 128.312 137.874 128.312 137.866 128.312C138.647 128.24 139.468 128.215 140.225 128.416ZM126.825 123.803C126.833 124.812 126.593 125.429 125.501 125.068C125.19 124.964 124.098 124.5 124.042 124.123C124.146 123.939 124.258 123.763 124.361 123.579C124.425 123.098 124.64 122.93 125.007 123.074C125.222 123.042 125.525 123.154 125.732 123.203C126.099 123.299 126.458 123.427 126.817 123.563C126.825 123.643 126.825 123.723 126.825 123.803ZM142.473 71.3829C142.147 72.2878 141.533 73.0566 141.19 73.9535C140.871 74.7783 140.736 75.6832 140.52 76.532C140.313 77.3489 139.938 77.9735 139.635 78.7342C139.356 79.4469 139.205 79.8954 138.527 80.3839C138.041 80.7282 137.507 81.0085 136.973 81.2728C136.008 81.7532 135.036 82.2257 134.071 82.7062C132.788 83.3468 131.337 83.3308 129.918 83.3148C129.742 83.1867 129.551 83.0505 129.36 82.9144C129.607 82.49 129.742 81.9775 129.83 81.497C130.069 80.1356 130.731 78.5981 129.846 77.3729C129.168 76.444 128.69 75.9074 128.754 74.6662C128.818 73.481 129.368 71.3749 130.954 71.9515C132.094 72.3679 132.269 74.3379 133.736 73.5291C134.366 73.1847 134.788 72.5281 135.179 71.9515C135.538 71.423 136.08 70.8704 136.207 70.2378C136.311 69.7253 135.737 68.46 135.968 68.1077C136.279 67.6352 138.049 68.46 138.583 68.6602C139.468 68.9885 140.393 69.2208 141.333 69.2768C141.78 69.3008 142.266 69.3329 142.697 69.2047C142.76 69.1887 142.856 69.1727 142.928 69.1407C142.936 69.1487 142.936 69.1487 142.936 69.1567C142.713 69.8854 142.736 70.6702 142.473 71.3829ZM83.8083 113.136C83.617 110.061 83.609 106.906 84.0873 103.855C84.5497 100.892 85.1795 97.9374 85.7455 94.9904C86.6782 90.0815 88.6153 84.7482 86.0962 80.0395C83.609 75.3869 78.7302 72.3038 75.1349 68.5961C73.0622 66.458 71.0533 64.2478 69.0284 62.0536C68.0399 60.9886 67.0514 59.9235 66.047 58.8825C65.0744 57.8735 63.9583 56.9285 63.1611 55.7674C62.5553 54.8785 62.0451 54.0376 61.2718 53.2849C60.2514 52.2999 59.231 51.3069 58.2505 50.2899C56.4249 48.4 54.687 46.4221 53.0368 44.372C49.9358 40.5042 47.2652 36.3961 45.041 31.9837C44.5229 30.9587 44.196 29.8376 43.646 28.8045C43.0321 27.6434 42.2987 26.5543 41.5015 25.5213C40.0427 23.6394 38.3606 21.9497 36.6785 20.268C34.7812 18.3701 32.868 16.4482 31.2736 14.2701C30.9308 13.8056 29.464 11.6274 30.7554 11.7235C31.2098 11.7636 31.728 12.172 32.0947 12.4202C32.8202 12.9247 33.4818 13.5333 34.1036 14.166C34.1993 14.3181 34.295 14.4623 34.3826 14.6144C34.7414 15.215 35.6661 14.6624 35.3074 14.0619C35.2595 13.9898 35.2117 13.9177 35.1719 13.8456C35.1559 13.7495 35.1081 13.6534 35.0284 13.5654C34.9965 13.5333 34.9726 13.5093 34.9407 13.4773C33.8406 11.7876 32.5093 10.2661 31.4091 8.57639C30.9707 7.89571 30.0858 6.73456 30.2771 5.8697C30.6119 4.35619 32.6607 6.73456 33.2586 7.39922C33.3383 7.52735 33.4499 7.59942 33.5775 7.62344C33.5934 7.62344 33.6094 7.63145 33.6253 7.63145C33.6413 7.63145 33.6572 7.63145 33.6731 7.63145C33.6891 7.63145 33.6971 7.63145 33.713 7.63145C34.0239 7.61543 34.3428 7.35117 34.2391 6.95878C33.8964 5.63747 32.876 4.49233 32.6209 3.163C32.3498 1.72958 33.5934 1.61746 34.5022 2.39424C35.0124 2.83468 35.403 3.41926 35.8495 3.92376C35.9372 4.01986 36.0089 4.12396 36.0886 4.22806C36.2481 4.66049 36.4394 5.04488 36.6068 5.30113C37.2525 6.28611 38.1055 7.11894 38.9346 7.95978C39.0462 8.07189 39.1578 8.184 39.2614 8.29611C40.0825 9.32113 40.816 10.4102 41.6291 11.4432C41.6371 11.4513 41.645 11.4593 41.653 11.4753C41.8284 11.6915 42.0038 11.9157 42.1871 12.1239C42.6096 12.6124 43.2952 11.9798 43.0321 11.4593C42.9604 11.3151 42.8807 11.195 42.8009 11.0909C42.8328 10.9948 42.8408 10.8907 42.8089 10.7866C42.5379 9.97779 42.1074 9.7936 41.5334 9.23304C40.8 8.51233 40.1623 7.66348 39.4288 6.91874C39.2216 6.71053 39.0143 6.50233 38.815 6.29412C38.4961 5.94177 38.1932 5.58942 37.954 5.20504C37.675 4.74858 37.3801 4.24408 37.0612 3.74758C36.6945 2.72256 36.3916 1.23308 37.396 1.16902C38.2091 1.11296 39.2694 2.67452 39.6839 3.18703C40.4572 4.14798 41.1667 5.15699 41.94 6.11794C42.7691 7.16699 43.8054 8.02384 44.6425 9.05687C45.2802 9.84165 45.623 10.8346 46.1252 11.7155C46.189 11.9718 46.2607 12.228 46.3325 12.4843C46.3963 13.1489 46.5876 13.8216 46.9543 14.3261C47.2891 14.7746 48.166 14.5263 47.9348 13.9017C47.7355 13.3652 47.5522 12.8126 47.3928 12.2521C47.3848 12.172 47.3848 12.0839 47.3768 12.0038C47.3848 11.9638 47.3927 11.9157 47.3848 11.8677C47.3768 11.7716 47.3768 11.6835 47.3529 11.5954C47.321 11.4352 47.2333 11.3311 47.1217 11.2671C46.9065 10.3542 46.755 9.42524 46.6992 8.49631C46.6434 7.63946 46.6274 6.67049 46.9862 5.8697C47.2971 5.165 47.887 4.90073 48.5646 5.53336C49.0828 6.01384 49.2901 7.0789 49.4973 7.72755C50.3423 10.3381 51.4186 13.5894 50.996 16.3361C50.6214 18.7705 49.8321 20.9887 50.4221 23.4712C51.5461 28.2039 56.7597 31.247 60.2434 34.0898C62.1248 35.6273 63.9663 37.2209 65.6165 39.0067C67.4739 41.0167 68.877 43.355 70.7822 45.317C71.8903 46.4541 72.9028 47.6313 74.0746 48.7043C75.2226 49.7534 76.4104 50.7704 77.4946 51.8915C78.5389 52.9726 79.4796 54.1418 80.5717 55.1828C81.6878 56.2398 82.8915 56.9445 83.8163 58.2018C83.8482 58.2418 83.8801 58.2739 83.9119 58.3059C83.9359 58.3379 83.9677 58.378 83.9996 58.41C85.3549 59.6592 86.8775 60.7804 88.3842 61.8454C90.146 63.0867 92.2585 63.6632 94.0522 64.8484C95.9893 66.1377 97.4004 68.1397 98.9947 69.8053C100.454 71.3269 101.785 72.0556 103.754 72.7122C106.321 73.5611 108.266 75.1867 110.578 76.524C112.124 77.4209 114.054 78.2938 115.823 77.5811C118.398 76.5481 118.024 72.9124 118.59 70.7022C119.012 69.0366 119.108 67.3069 119.514 65.6412C119.865 64.2078 120.734 62.5661 121.683 61.429C122.902 59.9635 124.927 59.5391 126.434 58.41C128.188 57.1047 130.5 56.6002 132.66 56.7924C136.726 57.1527 139.97 60.1077 142.912 62.6702C143.589 63.2628 144.267 63.8554 144.961 64.432C145.742 65.0886 147.193 65.8734 146.459 67.0586C145.782 68.1557 144.562 67.8114 143.717 68.2038C143.693 68.1877 143.661 68.1797 143.637 68.1717C143.589 68.1077 143.55 68.0436 143.47 67.9955C143.079 67.7553 142.736 68.0436 142.354 68.1397C140.648 68.5881 138.926 67.491 137.316 67.1067C136.55 66.9225 135.354 66.474 134.964 67.475C134.557 68.5241 135.45 69.501 134.844 70.5421C134.533 71.0866 133.975 72.1997 133.393 72.456C132.963 72.6482 133.067 72.5201 132.764 72.1357C132.556 71.8714 132.373 71.6071 132.11 71.3989C131.353 70.7743 130.069 70.454 129.208 71.0546C128.267 71.7112 127.821 73.2568 127.709 74.3379C127.566 75.6912 127.909 76.8123 128.77 77.8293C129.463 78.6461 129.105 79.2307 128.921 80.1516C128.794 80.7602 128.849 81.7452 128.523 82.3618C126.011 80.6962 122.759 79.1026 120.264 80.7442C119.475 81.2648 118.948 82.0736 118.598 82.9384C118.462 83.2828 118.35 83.6351 118.255 83.9955C118.239 84.0515 118.199 84.1396 118.183 84.2197C117.936 84.532 117.96 85.0205 118.374 85.1887C118.701 85.3248 118.916 85.1887 119.06 84.9564C119.188 84.9564 119.498 84.8443 119.65 84.8123C120.24 84.7002 120.846 84.6361 121.444 84.572C122.775 84.4279 124.106 84.3238 125.437 84.1957C126.37 84.1076 127.414 84.1076 128.315 83.8273C128.339 83.8193 128.355 83.8113 128.371 83.8033C128.331 84.0996 128.507 84.4279 128.889 84.4199C129.113 84.4119 129.344 84.4119 129.575 84.4199C129.678 84.492 129.774 84.564 129.87 84.6361C129.95 84.8924 130.189 85.1166 130.524 85.0525C132.516 84.6842 134.693 84.6281 136.463 83.5791C138.384 82.4419 140.544 81.5851 142.665 80.9044C146.722 79.5911 150.94 78.9344 155.069 77.8934C159.342 76.8203 163.615 75.523 167.696 73.8494C169.657 73.0486 171.595 72.1757 173.428 71.1106C175.437 69.9415 177.374 68.9085 179.59 68.1877C183.537 66.9065 187.626 66.2098 191.676 65.3529C194.976 64.6562 198.42 63.8794 201.354 62.1257C202.454 61.469 203.777 60.5882 204.423 59.443C205.029 58.37 205.18 57.0967 205.842 56.0637C207.293 53.7974 209.294 52.1077 210.218 49.5372C211.095 47.0947 212.052 44.6923 212.905 42.2419C213.176 41.4651 213.439 40.6563 213.79 39.9116C213.846 39.7835 214.228 39.0387 214.236 39.0387C214.34 39.0387 214.109 40.2399 214.085 40.336C213.957 40.8645 213.822 41.3931 213.686 41.9296C213.638 42.0417 213.591 42.1538 213.543 42.2659C212.945 43.7314 212.419 45.2209 212.06 46.7664C211.885 47.5112 211.613 48.2078 211.374 48.9286C211.271 49.2409 211.183 49.5692 211.095 49.8975C210.737 50.5622 210.322 51.1628 210.346 51.9796C210.362 52.5161 211.079 52.7083 211.35 52.2439C211.829 51.4431 212.156 50.5542 212.419 49.6333C212.443 49.5772 212.466 49.5212 212.49 49.4651C212.913 48.312 213.224 47.1027 213.614 45.9336C213.981 44.8445 214.308 43.7234 214.611 42.6103C214.85 42.0257 215.097 41.4411 215.336 40.8485C215.528 40.376 215.623 39.9196 215.735 39.4231C215.775 39.2469 215.831 38.5983 215.99 38.5182C216.237 38.7184 216.484 38.9186 216.723 39.1268C216.723 39.367 216.723 39.6153 216.731 39.8555C216.763 41.2649 216.835 42.5542 216.397 43.9156C216.341 44.0918 216.277 44.2679 216.213 44.4361C215.352 45.0687 214.754 46.9266 214.42 47.7674C214.26 48.1758 214.149 48.5842 214.053 48.9926C213.319 50.3139 212.514 51.8114 213.08 53.1968C213.264 53.6372 213.79 53.7173 214.069 53.3169C214.738 52.356 214.77 50.6823 215.01 49.5292C215.129 49.3129 215.249 49.1047 215.352 48.9045C215.878 47.8475 216.405 46.8065 216.859 45.7334C217.058 46.31 216.979 46.9986 216.979 47.6073C216.971 48.6483 216.995 49.6813 216.899 50.7224C216.723 52.7003 216.126 54.7664 215.536 56.6563C214.81 58.9786 215.137 62.1577 213.487 64.0716C211.191 66.7303 207.173 66.8264 204.255 68.3719C202.039 69.5411 199.927 70.9665 197.742 72.2238C196.834 72.7443 195.909 73.2328 195.032 73.8013C193.493 74.8023 192.146 76.0676 190.56 76.9965C188.981 77.9254 187.156 78.2538 185.522 79.0786C183.704 79.9915 181.998 81.1446 180.053 81.7773C178.371 82.3298 176.896 82.7142 175.461 83.8113C173.867 85.0285 172.177 86.1176 170.415 87.0705C166.979 88.9364 163.296 90.2817 159.589 91.4829C157.7 92.0995 155.81 92.6841 153.913 93.2767C152.103 93.8453 150.222 93.9494 148.389 94.3898C146.866 94.7502 145.351 95.2066 143.829 95.599C142.481 95.9434 141.142 96.3678 139.962 97.1205C138.487 98.0655 137.451 99.4268 136.383 100.788C135.155 102.35 133.983 103.935 132.955 105.641C131.998 107.227 130.763 108.676 129.726 110.214C128.69 111.743 127.319 113.433 126.777 115.227C126.259 116.932 126.705 119.094 126.761 120.856C126.777 121.377 126.801 121.905 126.817 122.426C125.645 121.993 124.266 121.673 123.309 122.418C122.281 123.219 122.751 124.452 123.572 125.188C124.337 125.877 125.533 126.494 126.585 126.286C127.725 126.061 127.917 125.036 127.925 124.043C128.674 124.38 129.336 124.796 129.886 125.485C130.364 126.093 130.874 126.582 131.48 127.062C131.95 127.447 132.445 127.759 132.955 128.031C132.708 128.103 132.493 128.199 132.341 128.328C131.927 128.664 131.616 129.681 131.377 130.137C131.042 130.778 130.707 131.435 130.237 131.987C129.2 133.22 127.694 134.254 126.41 135.214C125.302 136.039 124.146 136.8 122.902 137.417C122.297 137.721 121.635 137.913 121.045 138.233C120.463 138.546 120.12 138.978 119.666 139.435C118.622 140.476 117.043 141.044 115.728 141.693C114.333 142.374 112.93 143.046 111.511 143.679C108.242 145.144 104.862 146.538 101.394 147.451C97.783 148.404 94.0601 148.652 90.3373 148.548C90.2655 148.548 90.1858 148.564 90.122 148.596C90.0264 148.628 89.9387 148.692 89.8749 148.788C89.8749 148.78 89.8749 148.764 89.8669 148.756C89.9785 148.636 90.0423 148.468 90.0104 148.267C87.9218 136.536 84.5417 125.036 83.8083 113.136ZM127.383 82.9544C126.936 83.0025 126.458 82.9945 126.163 83.0265C124.05 83.2427 121.914 83.3548 119.809 83.6751C119.706 83.6912 119.578 83.7072 119.451 83.7232C120.726 79.8874 124.449 81.2007 127.383 82.9544ZM90.5844 157.092C91.4533 156.612 92.3302 156.147 93.2151 155.707C94.3152 155.162 95.4154 154.698 96.5952 154.362C97.0496 154.225 97.0496 154.225 96.8104 154.642C95.9256 156.179 94.8494 157.549 93.7572 158.942C93.255 159.575 92.7607 160.215 92.2824 160.864C92.131 159.887 91.9077 158.934 91.5091 158.109C91.2859 157.661 90.9511 157.373 90.5844 157.092ZM102.566 214.557C102.423 213.596 102.335 212.628 102.191 211.667C102.024 210.561 101.554 209.593 101.243 208.519C100.597 206.349 100.342 204.067 99.8716 201.849C98.907 197.292 98.1338 192.744 97.4163 188.139C97.0496 185.817 96.6749 183.495 96.3162 181.172C96.1249 179.939 95.8698 178.69 95.7821 177.441C95.6944 176.287 95.798 175.11 95.798 173.949C95.79 172.379 95.9734 170.514 94.5783 169.497C94.1638 169.192 93.813 169.088 93.526 168.64C93.263 168.223 93.1593 167.735 93.0477 167.262C92.8883 166.582 92.8086 165.893 92.7448 165.188C92.9441 165.084 93.0637 164.876 92.9441 164.604C92.8484 164.38 92.7368 164.163 92.6332 163.947C92.6252 163.827 92.6093 163.699 92.5933 163.579C92.5535 163.226 92.5216 162.866 92.4817 162.498C92.4817 162.49 92.4897 162.482 92.4897 162.482C92.6491 162.113 92.96 161.769 93.1912 161.449C93.7413 160.696 94.3232 159.967 94.8972 159.23C95.8937 157.965 97.0815 156.66 97.7511 155.178C98.2055 154.177 97.9584 153.184 96.6988 153.256C95.8219 153.304 94.937 153.737 94.1478 154.081C92.7129 154.714 91.0069 155.387 89.6517 156.283C89.3567 155.931 89.1415 155.523 89.0937 155.05C89.2132 154.618 89.3488 154.193 89.4843 153.769C89.835 152.672 90.2416 151.575 90.5445 150.454C90.6163 150.446 90.688 150.43 90.7678 150.414C90.983 150.366 91.1743 150.117 91.1584 149.885C91.1504 149.789 91.1424 149.693 91.1265 149.613C94.0761 149.661 97.0257 149.461 99.9274 148.868C103.196 148.195 106.369 146.978 109.446 145.697C112.284 144.512 115.066 143.19 117.816 141.813C118.454 141.493 119.267 141.228 119.833 140.788C120.256 140.46 120.535 139.955 120.925 139.587C121.507 139.042 122.312 138.842 123.022 138.506C123.716 138.177 124.385 137.809 125.039 137.409C126.259 136.648 127.407 135.775 128.523 134.87C129.655 133.957 130.811 133.084 131.616 131.843C132.038 131.186 132.341 130.466 132.724 129.793C133.059 129.208 133.194 129.12 133.864 128.984C134.207 128.912 134.549 128.84 134.9 128.768C135.139 128.84 135.378 128.904 135.626 128.96C137.451 129.393 139.34 129.801 141.19 130.121C141.389 130.153 141.604 130.193 141.82 130.225C141.891 130.514 141.947 130.826 142.011 131.154C142.338 132.692 142.752 134.966 144.092 136.007C146.571 137.945 149.01 132.924 150.055 130.746C150.668 131.162 151.458 131.411 152.103 131.643C152.749 131.875 153.411 132.091 154.072 132.292C154.471 132.444 154.886 132.564 155.268 132.676C155.763 132.82 156.265 132.94 156.767 133.044C156.99 133.1 157.213 133.164 157.437 133.22C159.063 133.637 160.697 133.989 162.331 134.35C158.162 135.126 154.527 137.449 151.761 140.868C148.851 144.456 147.025 148.7 145.303 152.952C144.985 153.745 144.682 154.546 144.291 155.306C143.462 156.908 142.115 158.205 141.541 159.911C140.759 160.592 139.954 161.224 139.038 161.737C137.196 162.77 135.49 162.578 133.513 162.209C132.046 161.929 130.428 161.697 129.001 162.289C128.554 162.474 128.148 162.738 127.789 163.066C127.446 163.226 127.088 163.411 127.024 163.451C126.394 163.875 125.812 164.371 125.238 164.86C124.114 165.797 123.11 166.646 122.528 168.015C122.129 168.96 121.021 172.163 122.871 172.363C124.321 172.524 125.342 169.897 125.788 168.912C126.115 168.199 126.506 167.415 126.673 166.638C126.713 166.454 126.745 166.269 126.777 166.101C126.681 168.488 126.841 170.874 126.976 173.252C127.167 176.68 127.135 180.123 126.474 183.438C124.967 184.56 123.484 185.713 122.065 186.978C120.535 188.347 118.837 189.813 117.641 191.494C117.171 192.151 116.724 192.888 116.334 193.585C115.855 194.441 115.257 195.042 114.954 195.979C114.357 197.853 113.44 199.607 114.189 201.577C114.277 201.801 114.46 201.977 114.715 201.969C114.731 201.969 114.755 201.961 114.771 201.961C112.356 205.26 110.155 208.768 107.285 211.691C105.898 213.1 104.352 214.261 102.694 215.206C102.646 214.998 102.598 214.782 102.566 214.557ZM125.669 165.909C125.669 165.957 125.661 166.013 125.661 166.061C125.589 167.342 124.704 168.832 124.074 169.913C123.923 170.177 123.261 171.386 122.966 171.186C122.599 170.938 123.245 169.152 123.381 168.784C123.835 167.551 124.648 166.758 125.645 165.933C125.653 165.933 125.661 165.917 125.669 165.909ZM115.106 200.816C114.715 198.998 115.64 196.459 116.74 195.146C117.171 194.634 117.386 194.009 117.745 193.44C118.342 192.479 118.932 191.631 119.722 190.798C121.691 188.708 123.851 186.826 126.107 185.072C125.709 186.57 125.166 188.035 124.441 189.46C123.245 191.807 121.571 193.777 119.929 195.819C119.18 196.756 118.422 197.685 117.601 198.558C117.019 199.166 116.031 200.479 115.106 200.816ZM141.581 162.65C142.457 162.081 143.725 161.977 144.737 162.025C146.635 162.113 148.468 162.778 150.262 163.362C151.944 163.915 153.69 164.516 155.476 164.588C157.182 164.652 158.84 164.139 160.378 163.451C162.172 162.642 163.838 161.497 165.703 160.84C166.676 160.496 167.912 160.119 168.94 160.4C170.758 160.904 170.646 162.498 169.785 163.787C168.653 165.477 166.277 166.67 164.587 167.751C162.81 168.896 160.984 169.969 159.143 171.01C157.253 172.067 155.244 172.988 153.435 174.181C151.649 175.35 149.951 176.672 148.277 177.993C145.12 180.484 142.776 183.983 140.672 187.37C138.376 191.078 136.542 195.034 134.501 198.878C132.477 202.69 129.934 206.045 127.59 209.641C126.426 211.418 124.792 212.563 123.341 214.069C121.978 215.47 121.173 217.304 120.104 218.93C118.151 221.909 114.46 224.68 110.682 223.791C108.768 223.334 107.429 221.781 106.098 220.435C104.982 219.306 103.778 217.833 103.084 216.271C104.4 215.542 105.651 214.686 106.815 213.653C110.753 210.185 113.4 205.484 116.581 201.368C116.652 201.28 116.684 201.184 116.692 201.088C117.569 200.359 118.35 199.342 118.972 198.638C120.391 197.028 121.746 195.338 123.062 193.641C125.254 190.814 126.705 187.482 127.502 183.999C128.036 183.599 128.578 183.206 129.12 182.814C132.182 180.62 135.498 178.586 138.001 175.719C139.022 174.55 139.867 173.204 140.257 171.691C140.728 169.825 140.472 167.879 140.504 165.981C140.504 164.82 140.528 163.322 141.581 162.65ZM139.883 162.914C139.149 164.956 139.516 167.142 139.444 169.264C139.301 173.749 135.905 176.6 132.54 179.074C130.97 180.235 129.368 181.348 127.797 182.486C127.837 182.253 127.877 182.021 127.909 181.781C128.618 176.92 127.781 172.035 127.829 167.158C127.845 166.037 127.686 164.74 128.507 163.899C128.714 163.819 128.929 163.747 129.152 163.699C129.272 163.675 129.399 163.571 129.471 163.459C129.519 163.435 129.567 163.411 129.615 163.395C129.734 163.338 129.806 163.258 129.854 163.17C130.34 163.042 130.85 163.01 131.361 163.026C133.083 163.082 134.733 163.787 136.471 163.659C137.945 163.547 139.205 162.97 140.361 162.177C140.146 162.386 139.986 162.634 139.883 162.914ZM215.057 154.305C213.136 154.121 211.566 153.216 209.78 152.536C207.731 151.751 205.77 151.711 203.626 152.079C198.819 152.904 193.836 153.248 188.957 153.008C186.454 152.888 183.951 152.56 181.528 151.919C179.296 151.335 177.295 150.205 175.094 149.557C172.774 148.876 170.989 149.429 168.765 150.141C166.421 150.886 164.029 151.487 161.63 152.023C159.143 152.584 156.647 153.072 154.16 153.625C151.84 154.137 149.385 154.546 147.209 155.531C146.826 155.707 146.467 155.899 146.117 156.115C145.933 155.899 145.582 155.795 145.311 156.043C145.16 156.179 145.016 156.323 144.873 156.468C144.977 156.299 145.072 156.139 145.168 155.963C145.471 155.403 145.702 154.802 145.949 154.217C146.659 152.496 147.336 150.766 148.109 149.076C150.11 144.712 152.749 140.332 156.831 137.649C159.501 135.887 162.563 135.11 165.743 135.158C165.855 135.158 165.951 135.126 166.022 135.078C166.604 135.214 167.194 135.343 167.792 135.447C169.657 135.759 171.515 135.719 173.38 136.087C175.429 136.496 177.486 136.72 179.511 137.289C181.528 137.857 183.449 138.778 185.426 139.467C187.538 140.195 189.643 140.948 191.779 141.581C192.76 141.869 193.756 142.109 194.753 142.342C195.694 142.566 196.587 142.958 197.535 143.142C199.297 143.487 200.875 144.512 202.709 144.536C202.884 144.536 203.02 144.472 203.1 144.368C203.283 144.296 203.426 144.135 203.434 143.887C203.594 139.955 203.1 135.991 201.409 132.412C201.067 131.691 200.62 131.218 200.748 130.434C200.899 129.489 201.226 128.8 202.239 128.712C203.187 128.624 204.391 128.976 205.316 129.208C206.44 129.489 207.428 129.913 208.393 130.562C210.075 131.691 211.566 133.132 212.291 135.07C212.953 136.824 212.857 138.714 213.591 140.468C215.057 143.967 219.809 147.218 218.772 151.399C218.756 151.479 218.748 151.551 218.764 151.615C218.326 153.048 216.484 154.001 215.057 154.305Z" fill="#77C6C4"/>
</svg>
