<?xml version="1.0" encoding="iso-8859-1"?>
<!-- Generator: Adobe Illustrator 25.2.1, SVG Export Plug-In . SVG Version: 6.00 Build 0)  -->
<svg version="1.1" id="Layer_1" xmlns="http://www.w3.org/2000/svg" xmlns:xlink="http://www.w3.org/1999/xlink" x="0px" y="0px"
	 viewBox="0 0 152.89 158.551" style="enable-background:new 0 0 152.89 158.551;" xml:space="preserve">
<g>
	<g>
		<path style="fill:#D0CFCB;" d="M560.104,710.775c6.586-6.132,12.942-7.195,20.26-4.89c-0.928,3.738-3.236,6.194-6.875,7.308
			C568.688,714.664,564.341,713.406,560.104,710.775z"/>
		<path style="fill:#D0CFCB;" d="M568.061,621.909c6.038-0.108,15.841,8.853,15.932,14.479
			C578.433,637.3,568.313,628.157,568.061,621.909z"/>
		<path style="fill:#D0CFCB;" d="M584.153,621.579c3.804,3.804,5.074,9.094,2.261,13.278
			C583.381,633.267,581.925,624.97,584.153,621.579z"/>
		<path style="fill:#D0CFCB;" d="M607.413,736.88c-1.306-1.62-2.552-3.165-3.656-4.535c1.236-1.689,2.408-3.29,3.554-4.856
			c1.168,1.485,2.45,3.114,3.784,4.811C609.986,733.678,608.735,735.234,607.413,736.88z"/>
		<path style="fill:#D0CFCB;" d="M625.409,732.425c1.25-1.786,2.362-3.375,3.438-4.912c1.071,1.46,2.276,3.104,3.551,4.844
			c-1.067,1.282-2.303,2.766-3.589,4.311C627.59,735.146,626.427,733.695,625.409,732.425z"/>
		<path style="fill:#D0CFCB;" d="M636.138,606.918c0.009-1.512,1.302-2.799,2.818-2.804c1.473-0.005,2.65,1.236,2.643,2.787
			c-0.007,1.576-1.308,2.851-2.917,2.859C637.221,609.768,636.129,608.547,636.138,606.918z"/>
		<path style="fill:#D0CFCB;" d="M578.014,643.827c-1.514-0.012-2.721-1.222-2.706-2.712c0.016-1.527,1.265-2.714,2.861-2.72
			c1.418-0.005,2.59,1.2,2.591,2.664C580.762,642.7,579.631,643.84,578.014,643.827z"/>
		<path style="fill:#D0CFCB;" d="M597.955,609.684c-1.574-0.061-2.848-1.324-2.822-2.795c0.026-1.493,1.387-2.708,2.948-2.631
			c1.444,0.071,2.653,1.491,2.576,3.026C600.586,608.692,599.406,609.741,597.955,609.684z"/>
		<path style="fill:#D0CFCB;" d="M591.648,620.052c-1.586,0.023-2.711-1.001-2.741-2.493c-0.03-1.465,1.113-2.657,2.589-2.702
			c1.437-0.043,2.629,1.129,2.66,2.616C594.186,618.944,593.129,620.031,591.648,620.052z"/>
		<path style="fill:#D0CFCB;" d="M605.208,670.896c-1.961-0.069-3.882-0.057-5.499-1.7c4.773,0.046,9.556-0.813,13.073,3.402
			c-2.028-2.665-4.706-4.022-8.231-4.087c4.608-1.154,9.361,1.83,9.269,5.907c-1.064-0.82-2.132-1.642-3.224-2.483
			c-1.335,2.35-2.318,2.976-3.731,2.503C605.544,673.997,604.998,672.908,605.208,670.896z"/>
		<path style="fill:#D0CFCB;" d="M597.332,665.804c1.199-1.574,2.765-2.454,4.507-2.918c3.383-0.902,6.769-0.661,10.061,0.471
			c2.014,0.692,2.81,2.003,2.474,3.695c-0.039,0.195-0.164,0.373-0.373,0.827C608.792,664.472,603.296,663.22,597.332,665.804z"/>
		<path style="fill:#D0CFCB;" d="M602.603,672.022c1.837,2.813,4.346,4.145,7.759,3.686c-1.205,0.967-2.553,0.882-3.841,0.489
			C604.476,675.573,603.171,674.144,602.603,672.022z"/>
		<path style="fill:#D0CFCB;" d="M633.944,674.154c-1.155,2.173-3.637,2.99-6.463,2.104c-0.501-0.157-0.973-0.404-1.401-0.744
			c0.998,0.099,2.029,0.404,2.984,0.246c1.287-0.214,2.515-0.785,3.768-1.201c0.38-0.126,0.761-0.25,1.144-0.372
			C633.979,674.187,633.944,674.154,633.944,674.154z"/>
		<path style="fill:#D0CFCB;" d="M620.365,688.372c-0.713,0-1.216,0.629-1.719,0.629c-0.503,0-1.006-0.629-1.719-0.629
			c-1.614,0-2.997,2.18-5.051,2.138c2.368,1.907,3.228,4.926,6.77,4.926s4.402-3.018,6.77-4.926
			C623.362,690.552,621.979,688.371,620.365,688.372z"/>
		<path style="fill:#D0CFCB;" d="M621.461,682.869c-0.416-0.043-2.384,1.608-2.814,1.608s-2.398-1.651-2.814-1.608
			c-0.416,0.043-1.292,0.546-0.976,0.933s2.768,1.565,3.791,1.565s3.475-1.177,3.791-1.565S621.877,682.912,621.461,682.869z"/>
		<path style="fill:#D0CFCB;" d="M625.784,740.75c-4.938,3.05-4.938,3.05-7.615,8.141c-1.187-4.03-3.864-6.533-7.672-8.073
			c1.25-0.884,2.362-1.613,3.41-2.426c1.827-1.417,3.251-3.307,3.495-5.528c0.185-1.685-0.453-3.544-1.039-5.216
			c-2.536-7.226-7.934-11.583-14.779-14.447c-3.67-1.535-7.421-2.378-11.44-1.927c-8.314,0.933-13.305,10.658-8.999,17.728
			c2.976,4.887,11.051,6.542,14.799,0.26c1.311-2.197,0.806-5.198-1.101-6.775c-1.471-1.216-3.682-0.967-4.601,0.684
			c-0.287,0.515-0.042,1.395,0.12,2.07c0.156,0.654,1.122,1.263,0.099,1.918c-0.772,0.494-1.811,0.043-2.321-0.898
			c-1.46-2.697,0.613-6.292,3.828-6.639c4.045-0.436,7.415,3.084,6.917,7.224c-0.765,6.367-7.259,10.297-13.437,8.132
			c-6.163-2.16-9.471-8.598-7.644-15.121c1.708-6.098,5.751-9.716,12.004-10.832c0.247-0.044,0.496-0.085,0.739-0.147
			c0.07-0.018,0.122-0.104,0.295-0.26c-0.884-0.518-1.742-0.991-2.569-1.514c-0.924-0.585-1.962-1.079-2.695-1.854
			c-1.409-1.49-3.132-1.673-5.015-1.814c-5.815-0.436-11.521-1.43-16.922-3.778c-6.274-2.728-10.787-7.348-14.226-13.138
			c-3.432-5.778-5.317-12.03-5.155-18.748c0.107-4.411-0.38-3.649,3.898-3.996c6.924-0.562,12.812,2.21,18.196,6.265
			c3.935,2.963,7.073,6.582,8.974,11.186c0.046,0.112,0.109,0.216,0.252,0.495c0.49-2.476,0.969-4.677,1.332-6.897
			c0.076-0.468-0.123-1.163-0.455-1.484c-1.26-1.219-2.589-2.374-3.961-3.466c-1.9-1.513-4.073-2.742-5.751-4.462
			c-3.015-3.091-3.6-7.065-3.006-11.184c0.715-4.961,2.628-9.465,5.663-13.473c0.151-0.199,0.328-0.38,0.506-0.556
			c0.054-0.053,0.153-0.06,0.359-0.134c0.091,0.304,0.226,0.595,0.261,0.898c0.378,3.273,2.022,5.704,4.759,7.512
			c1.75,1.156,3.456,2.403,5.056,3.758c3.422,2.898,4.354,6.634,3.084,10.841c-0.995,3.297-2.412,6.468-3.36,9.776
			c-0.959,3.345-1.854,6.754-2.282,10.197c-1.03,8.291,2.344,14.802,8.658,20.019c3.511,2.901,7.689,4.455,11.794,6.182
			c0.704,0.296,1.414,0.578,2.2,0.664c-1.844-1.646-3.761-3.217-5.517-4.951c-5.967-5.888-10.4-12.679-11.927-21.078
			c-1.036-5.699-0.262-11.231,1.724-16.631c1.34-3.643,2.535-7.312,2.469-11.278c-0.031-1.863-0.46-3.559-1.34-5.192
			c-3.203-5.943-0.146-13.929,6.2-16.188c1.438-0.512,2.621-1.082,3.449-2.582c1.663-3.013,4.351-5.072,7.26-6.857
			c0.484-0.297,0.919-0.976,1.021-1.542c0.558-3.115-0.149-6.01-1.74-8.72c-0.82-1.397-1.6-2.816-2.398-4.226
			c0.088-0.122,0.176-0.244,0.264-0.366c0.706,0.139,1.457,0.169,2.109,0.439c1.895,0.785,3.706,0.599,5.484-0.29
			c4.715-2.356,7.644-6.223,9.269-11.139c0.512-1.548,0.838-3.158,1.327-5.038c0.485,1.809,0.827,3.372,1.324,4.883
			c1.667,5.063,4.739,8.938,9.635,11.271c1.852,0.883,3.69,1.039,5.624,0.353c0.606-0.215,1.256-0.308,1.887-0.456
			c0.09,0.105,0.181,0.21,0.271,0.314c-0.316,0.641-0.562,1.331-0.962,1.915c-1.479,2.159-2.973,4.301-3.367,6.98
			c-0.037,0.25-0.09,0.497-0.131,0.746c-0.459,2.76,0.276,4.902,2.857,6.386c3.447,1.981,6.107,4.866,8.464,8.029
			c0.577,0.773,1.085,1.605,1.557,2.447c0.411,0.733,0.829,1.027,1.779,0.861c2.166-0.378,3.846,1.587,3.018,3.483
			c-0.296,0.679-0.997,1.18-1.545,1.798c0.599,2.275,1.453,4.667,1.828,7.132c0.658,4.316,1.058,8.674,1.48,13.022
			c0.087,0.894,0.241,1.556,0.978,2.164c0.818,0.675,1.458,1.565,2.411,2.621c-0.507-1.604-0.944-2.868-1.308-4.153
			c-1.911-6.758-0.302-11.157,5.517-15.13c0.695-0.474,1.409-0.921,2.116-1.377c1.973-1.272,3.223-3.041,3.694-5.351
			c0.099-0.486,0.224-0.967,0.388-1.67c0.591,0.345,1.146,0.511,1.464,0.88c4.926,5.724,7.869,15.233,3.163,23.099
			c-1.89,3.159-4.754,5.291-7.791,7.232c-1.096,0.701-2.685,1.272-3.06,2.273c-0.36,0.96,0.564,2.4,0.92,3.63
			c0.315,1.088,0.625,2.177,0.994,3.464c0.639-1.067,1.168-1.997,1.741-2.9c6.512-10.257,15.86-14.638,27.897-13.492
			c1.118,0.106,1.467,0.567,1.493,1.667c0.108,4.668-0.951,9.102-2.486,13.46c-1.817,5.158-4.529,9.77-8.454,13.602
			c-5.237,5.114-11.677,7.863-18.767,9.18c-2.35,0.437-4.783,0.418-7.139,0.831c-1.274,0.224-2.576,0.745-3.668,1.441
			c-1.79,1.14-3.42,2.532-4.933,3.678c2.043,0.871,4.289,1.517,6.204,2.7c8.108,5.01,8.192,17.462,0.245,22.621
			c-5.677,3.686-13.352,1.429-15.553-4.575c-1.119-3.053-0.496-6.221,1.681-8.137c1.669-1.469,3.614-1.995,5.749-1.201
			c1.806,0.672,2.862,2.05,3.103,3.96c0.154,1.218-0.095,2.388-1.179,3.146c-0.704,0.493-1.552,0.629-2.188-0.078
			c-0.645-0.717,0.047-1.205,0.497-1.69c0.836-0.901,0.667-2.129-0.4-2.905c-1.282-0.933-3.247-0.685-4.359,0.551
			c-1.666,1.851-1.746,4.693-0.193,6.893c3.448,4.884,10.328,4.783,14.252-0.222c4.191-5.345,2.891-15.453-6.269-18.131
			c-2.412-0.705-4.76-0.664-7.054,0.249c-4.141,1.648-8.363,3.153-12.334,5.15c-5.746,2.889-8.916,8.014-10.338,14.085
			c-0.62,2.647,1.087,4.96,2.988,6.783C622.995,738.903,624.418,739.743,625.784,740.75z M633.944,674.154l0.035,0.034
			c-0.329-1.123-1.189-1.651-2.255-2.059c-0.408,1.437-1.267,2.323-2.759,2.422c-1.716,0.113-2.408-1.069-2.97-2.811
			c-1.346,1.258-2.497,2.335-3.649,3.412c-0.086-0.063-0.173-0.125-0.259-0.188c0.94-1.248,1.686-2.743,2.873-3.676
			c1.196-0.94,2.831-1.321,4.422-2.012c-1.03-0.559-2.163-1.654-3.303-1.66c-1.209-0.007-2.425,1.018-3.638,1.593
			c-0.076-0.065-0.152-0.13-0.228-0.195c0.69-1.117,1.38-2.234,2.147-3.476c-5.555-3.981-10.94-8.188-15.116-14.03
			c-2.803,5.884-5.925,10.971-13.397,10.17c0,3.439,0,6.712,0,10.05c-1.275-1.794-2.626-3.473-5.237-3.415
			c0.121,3.097,0.435,6.008,1.713,8.725c0.763,1.622,1.938,2.685,3.857,2.842c0.483,0.04,1.098,0.549,1.346,1.007
			c0.798,1.477,1.454,3.032,2.164,4.557c2.828,6.074,6.475,11.481,12.051,15.439c4.969,3.527,7.891,3.649,12.865,0.163
			c6.213-4.354,10.281-10.238,12.778-17.385c1.095-3.135,0.666-5.627-1.599-7.904C635.214,675.181,634.56,674.686,633.944,674.154z
			 M640.102,654.949c0.041-0.467,0.087-0.675,0.074-0.88c-0.337-5.383-1.588-10.524-4.695-14.996
			c-4.154-5.979-9.709-9.869-17.161-10.511c-2.956-0.255-5.838,0.22-8.36,1.872c-4.513,2.956-5.564,7.487-3.204,12.733
			c2.619,5.823,6.713,10.472,11.524,14.508c3.866,3.243,7.94,6.235,11.877,9.395c5.146,4.13,9.425,8.991,12.407,14.934
			c4.897,9.761,3.562,19.498-3.811,27.557c-0.252,0.275-0.466,0.586-0.697,0.88c0.101,0.131,0.202,0.261,0.303,0.392
			c3.101-1.834,6.292-3.535,9.264-5.558c1.451-0.988,2.761-2.412,3.68-3.916c4.751-7.786,5.13-15.666,0.115-23.55
			c-3.161-4.97-7.595-8.599-12.294-12.002c-5.789-4.193-11.593-8.379-17.183-12.83c-3.606-2.871-6.485-6.485-8.33-10.799
			c-0.79-1.846-1.306-3.757-1.139-5.815c1.446,5.906,5.118,10.31,9.696,13.941c4.973,3.944,10.096,7.714,15.317,11.325
			c5.221,3.612,10.201,7.435,14.046,12.551c2.928,3.896,5.182,8.137,5.473,13.086c0.166,2.83-0.174,5.69-0.281,8.414
			c-0.139,0.078-0.045,0.055-0.001-0.005c0.147-0.204,0.286-0.415,0.41-0.634c2.198-3.894,2.78-8.073,2.169-12.454
			c-0.921-6.606-4.504-11.752-8.957-16.452c-4.069-4.295-8.966-7.49-13.874-10.675c-4.859-3.153-9.433-6.636-13.174-11.101
			c-0.814-0.971-1.472-2.073-2.202-3.115c0.101-0.081,0.202-0.162,0.303-0.243C626.681,646.813,633.404,650.668,640.102,654.949z
			 M618.078,616.905c-0.318,0.448-0.739,1.016-1.133,1.602c-1.858,2.759-4.259,4.836-7.369,6.108
			c-1.985,0.812-4.014,1.597-5.839,2.699c-5.645,3.412-9.301,8.126-9.05,15.091c0.212,5.875,5.872,8.876,10.867,5.833
			c0.765-0.466,0.952-0.902,0.473-1.716c-0.596-1.013-1.135-2.073-1.567-3.166c-1.32-3.341-1.641-6.745,0.047-10.038
			c2.091-4.077,5.712-6.107,10.087-6.746c7.212-1.054,13.244,1.701,18.473,6.362c5.757,5.132,8.543,11.851,9.114,19.393
			c0.228,3.011,0.686,5.447,3.678,6.757c0.295,0.129,0.516,0.426,0.775,0.641c0.884,0.733,1.769,1.465,2.682,2.22
			c0.096-0.205,0.162-0.279,0.158-0.349c-0.052-0.882-0.104-1.765-0.174-2.645c-0.502-6.297-1.62-12.454-4.526-18.136
			c-3.435-6.718-8.318-11.976-15.385-15.03c-2.072-0.896-4.209-1.858-5.95-3.248C621.47,620.967,619.916,618.88,618.078,616.905z
			 M601.042,707.606c0.116-0.062,0.231-0.125,0.347-0.187c0-3.968,0.126-7.942-0.063-11.901c-0.073-1.539-0.735-3.094-1.34-4.555
			c-1.156-2.792-2.447-5.53-3.729-8.268c-0.169-0.362-0.575-0.779-0.938-0.857c-2.906-0.625-4.538-2.679-5.269-5.261
			c-0.794-2.805-1.051-5.761-1.576-8.644c-0.233-1.28,0.451-1.678,1.521-1.608c1.185,0.077,2.361,0.283,3.512,0.429
			c0-1.537,0.023-3.086-0.02-4.634c-0.009-0.31-0.188-0.762-0.428-0.894c-1.197-0.661-2.44-1.236-3.701-1.859
			c-0.03,0.049-0.118,0.144-0.149,0.255c-0.683,2.419-1.199,4.9-2.069,7.249c-2.18,5.885-3.192,11.842-1.756,18.061
			c1.52,6.583,4.968,12.099,9.54,16.942C596.84,703.902,598.996,705.702,601.042,707.606z M546.775,667.118
			c-0.607,10.178,3.293,18.275,9.967,25.227c4.431,4.616,17.49,9.514,21.749,8.324c-6.443-5.015-6.411-5.038-11.295-11.969
			c-0.718-1.018-1.783-2.039-2.913-2.472c-3.052-1.171-6.219-2.046-9.352-2.999c-1.453-0.442-2.933-0.794-4.401-1.187
			c0.026-0.106,0.052-0.211,0.078-0.317c4.461-0.511,8.733,0.541,13.119,1.927C559.538,676.548,553.766,671.451,546.775,667.118z
			 M630.605,623.897c-0.388-3.843,0.277-7.21,2.16-10.377c-7.54-1.036-11.761-5.769-14.563-12.345
			c-2.833,6.718-7.136,11.382-14.424,12.285c0.625,1.697,1.387,3.269,1.763,4.928c0.38,1.681,0.377,3.448,0.547,5.231
			c6.69-1.877,10.311-6.579,12.176-12.997c0.959,3.109,2.226,5.876,4.236,8.274C624.577,621.373,627.374,622.649,630.605,623.897z
			 M618.452,722.57c1.299-4.411,3.68-8.13,6.397-11.626c2.088-2.687,4.378-5.217,6.575-7.819c1.582-1.874,1.249-4.093,1.047-6.416
			c-0.681,0.45-1.101,1.088-1.612,1.641c-2.212,2.395-4.702,4.439-7.555,6.047c-3.182,1.793-6.421,2.099-9.586,0.178
			c-2.181-1.324-4.232-2.886-6.231-4.479c-1.319-1.051-2.442-2.346-3.769-3.644c-0.395,2.886-0.065,5.209,1.91,7.401
			c2.888,3.207,5.573,6.629,8.038,10.172C615.478,716.628,616.799,719.572,618.452,722.57z M640.138,682.353
			c-0.214,0.524-0.334,0.824-0.46,1.122c-1.109,2.626-2.031,5.355-3.398,7.839c-0.854,1.551-1.26,3.066-1.342,4.755
			c-0.044,0.925-0.19,1.857-0.118,2.773c0.261,3.327-1.329,5.714-3.582,7.955c-3.534,3.515-6.45,7.533-8.859,11.907
			c-0.22,0.399-0.403,0.818-0.603,1.228c2.693-2.976,6.167-4.766,9.35-6.952c1.865-1.281,3.801-2.557,5.36-4.17
			c5.152-5.329,7.864-11.587,6.455-19.158C642.471,687.128,641.471,684.787,640.138,682.353z M686.846,681.637
			c-0.401,0.041-0.654,0.031-0.885,0.095c-3.524,0.982-7.041,1.99-10.568,2.958c-2.68,0.736-4.753,2.172-6.088,4.697
			c-2.204,4.17-5.418,7.474-9.178,10.273c-0.443,0.33-0.873,0.678-1.553,1.207C671.229,699.861,681.635,693.802,686.846,681.637z
			 M593.213,636.435c-1.888,0.685-3.25,1.727-4.34,3.151c-2.56,3.344-3.337,9.5,1.205,12.882c3.831,2.853,10.61,3.204,14.558,0.515
			c1.123-0.765,2.042-1.832,3.054-2.76c-0.092-0.106-0.183-0.212-0.275-0.318c-0.312,0.183-0.624,0.366-0.936,0.55
			c-3.406,2.02-7.322,1.899-10.412-0.489c-3.45-2.667-4.1-6.368-3.518-10.428C592.689,638.561,592.959,637.601,593.213,636.435z
			 M672.193,684.668c0.166,0.024,0.266,0.072,0.313,0.04c4.467-2.973,9.555-4.267,14.678-5.488c0.388-0.093,0.864-0.529,0.986-0.906
			c0.58-1.795,1.155-3.605,1.531-5.45c0.36-1.769,0.471-3.589,0.728-5.687C682.491,671.475,676.653,677.316,672.193,684.668z
			 M578.423,669.376c0.168,0.033,0.336,0.066,0.504,0.099c0.825-2.406,1.732-4.787,2.455-7.222c1.057-3.565-0.128-6.461-2.993-8.693
			c-2.565-1.999-5.187-3.924-7.908-5.976c0.105,1.301-0.033,2.778,0.385,4.074c0.742,2.296,1.571,4.636,2.816,6.682
			C575.795,661.81,577.664,665.333,578.423,669.376z M665.488,647.405c-1.782,1.271-3.471,2.634-5.307,3.756
			c-6.233,3.805-6.135,10.588-2.512,16.704C662.623,660.055,665.934,651.344,665.488,647.405z M669.029,674.791
			c-0.163-0.029-0.327-0.058-0.49-0.087c-0.189,0.156-0.429,0.278-0.559,0.473c-1.671,2.511-3.504,4.939-4.919,7.588
			c-0.841,1.574-1.031,3.5-1.495,5.272c-0.56,2.141-0.991,4.324-1.689,6.418c-0.438,1.313-1.264,2.497-1.982,3.864
			c0.265-0.096,0.379-0.12,0.476-0.176c0.182-0.105,0.357-0.221,0.527-0.345c4.055-2.94,7.164-6.695,9.524-11.089
			c0.253-0.471,0.573-0.993,0.58-1.495C669.053,681.741,669.029,678.266,669.029,674.791z M667.323,645.741
			c0.784,9.078-3.878,16.233-8.387,23.694c3.008-0.636,5.515-1.618,7.52-3.599C672.044,660.315,671.332,651.572,667.323,645.741z
			 M568.253,674.498c-1.678,9.46,3.524,20.931,10.054,23.112c-0.861-2.58-1.778-5.354-2.713-8.123
			c-0.979-2.899-1.854-5.842-2.999-8.675C571.655,678.487,570.226,676.407,568.253,674.498z M565.885,682.766
			c0.146-0.046,0.292-0.091,0.438-0.137c-0.217-2.967-0.335-5.947-0.711-8.894c-0.114-0.894-0.759-1.927-1.477-2.503
			c-4.017-3.23-8.648-4.953-13.813-5.187c-0.326-0.015-0.656,0.046-0.984,0.072C556.324,670.316,561.655,675.983,565.885,682.766z
			 M568.501,647.294c-6.145,11.632-1.359,17.942,7.56,21.847c-0.053-0.288-0.081-0.528-0.142-0.76
			c-0.847-3.208-2.339-6.116-4.171-8.859c-1.78-2.664-3.13-5.485-3.24-8.759C568.468,649.608,568.501,648.451,568.501,647.294z
			 M670.824,682.029c4.445-5.853,9.132-11.279,15.408-15.136c-5.834,0.214-11.058,1.866-15.434,5.726
			c-0.275,0.243-0.535,0.702-0.518,1.047C670.423,676.455,670.634,679.241,670.824,682.029z M614.718,719.955
			c-3.089-5.834-6.753-10.987-11.404-15.426c0.02,2.984,1.212,5.513,3.194,7.568C609.091,714.775,611.879,717.256,614.718,719.955z
			 M604.897,655.251c-5.471,2.432-10.493,2.066-15.661-0.769C593.134,660.247,600.506,660.599,604.897,655.251z M676.189,710.604
			c-5.898-6.781-13.236-8.705-20.33-3.697C659.616,713.141,672.309,715.409,676.189,710.604z M659.662,624.434
			c-3.756,2.852-5.327,7.133-7.142,11.239c-0.02,0.045,0.064,0.136,0.155,0.318c1.361-0.438,2.728-0.943,4.13-1.317
			c5.177-1.382,8.719-4.556,10.568-9.578c0.454-1.234,0.737-2.531,1.184-4.096C665.09,621.554,662.179,622.523,659.662,624.434z
			 M652.945,621.352c-3.503,2.632-5.131,8.163-3.626,12.26c0.273,0.743,0.71,0.684,1.094,0.179c0.935-1.231,1.968-2.425,2.673-3.784
			c1.47-2.831,1.09-5.794,0.424-8.801C653.177,621.288,653.034,621.284,652.945,621.352z M647.628,617.538
			c0.001-1.484-1.168-2.738-2.562-2.748c-1.464-0.011-2.697,1.186-2.69,2.61c0.008,1.543,1.199,2.729,2.719,2.706
			C646.569,620.085,647.627,619.012,647.628,617.538z M658.699,639.031c-1.381,0.008-2.437,0.997-2.484,2.326
			c-0.047,1.335,1.062,2.445,2.47,2.472c1.465,0.028,2.513-0.956,2.525-2.369C661.221,640.1,660.107,639.022,658.699,639.031z
			 M537.38,771.389h-9.47l-1.642,3.788h-2.651l7.702-17.677h2.651l7.703,17.677h-2.652L537.38,771.389z M536.37,769.116
			l-3.712-8.586l-3.737,8.586H536.37z M543.194,773.661c0-1.01,0.808-1.768,1.768-1.768c1.01,0,1.768,0.757,1.768,1.768
			c0,0.959-0.758,1.768-1.768,1.768C544.002,775.429,543.194,774.621,543.194,773.661z M554.054,768.611
			c-3.056,0-5.455-2.5-5.455-5.556s2.399-5.556,5.455-5.556h9.849v17.677h-2.525v-6.566h-4.167l-6.061,6.566h-3.156L554.054,768.611
			z M561.378,766.338v-6.565h-7.071c-1.818,0-3.283,1.464-3.283,3.283s1.465,3.283,3.283,3.283H561.378z M566.181,773.661
			c0-1.01,0.808-1.768,1.768-1.768c1.01,0,1.768,0.757,1.768,1.768c0,0.959-0.758,1.768-1.768,1.768
			C566.989,775.429,566.181,774.621,566.181,773.661z M571.99,757.499h15.657v17.677h-2.525v-15.404h-10.606v15.404h-2.525V757.499z
			 M589.673,766.338c0-5.151,4.192-9.344,9.344-9.344c3.005,0,5.682,1.415,7.399,3.637l-1.692,1.389
			c-1.414-1.591-3.459-2.702-5.758-2.702c-3.863,0-6.768,3.106-6.768,7.02c0,3.915,2.904,7.021,6.768,7.021
			c2.298,0,4.344-1.111,5.758-2.702l1.692,1.389c-1.717,2.222-4.395,3.636-7.399,3.636
			C593.865,775.682,589.673,771.49,589.673,766.338z M608.568,757.499h2.525v13.99l11.111-13.99h2.525v17.677h-2.525v-13.99
			l-11.111,13.99h-2.525V757.499z M633.397,766.338l-6.894-8.838h2.955l5.404,6.945l5.404-6.945h2.955l-6.869,8.838l6.869,8.839
			h-2.955l-5.404-6.945l-5.404,6.945h-2.955L633.397,766.338z M642.468,766.338c0-5.151,4.192-9.344,9.344-9.344
			s9.344,4.192,9.344,9.344c0,5.152-4.192,9.344-9.344,9.344S642.468,771.49,642.468,766.338z M651.812,773.358
			c3.914,0,6.818-3.106,6.818-7.021c0-3.914-2.904-7.02-6.818-7.02s-6.818,3.106-6.818,7.02
			C644.993,770.252,647.898,773.358,651.812,773.358z M660.655,772.904h0.758c1.263,0,1.717-0.985,2.045-2.272l3.258-13.132h10.859
			v17.677h-2.525v-15.404h-6.313l-2.854,11.616c-0.53,2.122-1.541,3.788-3.965,3.788h-1.263V772.904z M679.601,766.338
			c0-5.151,4.192-9.344,9.344-9.344s9.344,4.192,9.344,9.344c0,5.152-4.192,9.344-9.344,9.344S679.601,771.49,679.601,766.338z
			 M688.945,773.358c3.914,0,6.818-3.106,6.818-7.021c0-3.914-2.904-7.02-6.818-7.02c-3.915,0-6.818,3.106-6.818,7.02
			C682.127,770.252,685.03,773.358,688.945,773.358z M700.315,757.499h13.131v2.273H702.84v15.404h-2.525V757.499z"/>
	</g>
</g>
<g>
	<g>
		<path style="fill:#D0CFCB;" d="M18.204,118.468c6.586-6.132,12.942-7.194,20.26-4.89c-0.928,3.738-3.236,6.194-6.875,7.308
			C26.788,122.357,22.441,121.099,18.204,118.468z"/>
		<path style="fill:#D0CFCB;" d="M26.161,29.602c6.038-0.108,15.841,8.853,15.932,14.479C36.533,44.993,26.413,35.85,26.161,29.602z
			"/>
		<path style="fill:#D0CFCB;" d="M42.253,29.272c3.804,3.804,5.074,9.094,2.261,13.278C41.481,40.96,40.025,32.663,42.253,29.272z"
			/>
		<path style="fill:#D0CFCB;" d="M65.513,144.573c-1.306-1.62-2.552-3.165-3.656-4.535c1.236-1.689,2.408-3.29,3.554-4.856
			c1.168,1.485,2.45,3.114,3.784,4.811C68.086,141.371,66.835,142.927,65.513,144.573z"/>
		<path style="fill:#D0CFCB;" d="M83.509,140.118c1.25-1.786,2.362-3.375,3.438-4.912c1.071,1.46,2.276,3.104,3.551,4.844
			c-1.067,1.282-2.303,2.766-3.589,4.311C85.69,142.839,84.527,141.388,83.509,140.118z"/>
		<path style="fill:#D0CFCB;" d="M94.238,14.611c0.009-1.512,1.302-2.799,2.818-2.804c1.473-0.005,2.65,1.236,2.643,2.787
			c-0.007,1.576-1.308,2.851-2.917,2.859C95.321,17.461,94.229,16.24,94.238,14.611z"/>
		<path style="fill:#D0CFCB;" d="M36.114,51.52c-1.514-0.012-2.721-1.222-2.706-2.712c0.016-1.527,1.265-2.714,2.861-2.72
			c1.418-0.005,2.59,1.2,2.592,2.664C38.862,50.393,37.731,51.533,36.114,51.52z"/>
		<path style="fill:#D0CFCB;" d="M56.055,17.377c-1.574-0.061-2.848-1.324-2.822-2.795c0.026-1.493,1.387-2.708,2.948-2.631
			c1.444,0.071,2.653,1.491,2.576,3.026C58.686,16.385,57.506,17.434,56.055,17.377z"/>
		<path style="fill:#D0CFCB;" d="M49.748,27.745c-1.586,0.023-2.711-1.001-2.741-2.493c-0.03-1.465,1.113-2.657,2.588-2.702
			c1.437-0.043,2.629,1.129,2.66,2.616C52.286,26.637,51.229,27.724,49.748,27.745z"/>
		<path style="fill:#D0CFCB;" d="M63.308,78.589c-1.961-0.069-3.882-0.057-5.499-1.7c4.773,0.046,9.556-0.813,13.073,3.402
			c-2.028-2.665-4.706-4.022-8.231-4.087c4.608-1.154,9.361,1.83,9.269,5.907c-1.064-0.82-2.132-1.642-3.223-2.483
			c-1.335,2.35-2.318,2.976-3.731,2.503C63.644,81.69,63.098,80.601,63.308,78.589z"/>
		<path style="fill:#D0CFCB;" d="M55.432,73.497c1.199-1.574,2.765-2.454,4.507-2.918c3.383-0.902,6.769-0.661,10.061,0.47
			c2.014,0.692,2.81,2.003,2.474,3.695c-0.039,0.195-0.164,0.373-0.373,0.827C66.892,72.165,61.396,70.913,55.432,73.497z"/>
		<path style="fill:#D0CFCB;" d="M60.703,79.715c1.837,2.813,4.347,4.145,7.759,3.686c-1.205,0.967-2.553,0.882-3.84,0.489
			C62.576,83.266,61.271,81.837,60.703,79.715z"/>
		<path style="fill:#D0CFCB;" d="M92.044,81.847c-1.155,2.173-3.637,2.99-6.463,2.104c-0.501-0.157-0.973-0.404-1.401-0.744
			c0.998,0.099,2.029,0.404,2.984,0.246c1.287-0.214,2.515-0.785,3.768-1.201c0.38-0.126,0.761-0.25,1.144-0.372
			C92.079,81.88,92.044,81.847,92.044,81.847z"/>
		<path style="fill:#D0CFCB;" d="M78.465,96.065c-0.713,0-1.216,0.629-1.719,0.629c-0.503,0-1.006-0.629-1.719-0.629
			c-1.614-0.001-2.997,2.18-5.051,2.138c2.368,1.907,3.228,4.926,6.77,4.926c3.542,0,4.402-3.018,6.77-4.926
			C81.462,98.245,80.079,96.064,78.465,96.065z"/>
		<path style="fill:#D0CFCB;" d="M79.561,90.562c-0.416-0.043-2.384,1.608-2.814,1.608s-2.398-1.651-2.814-1.608
			c-0.416,0.043-1.292,0.546-0.976,0.933s2.768,1.565,3.791,1.565c1.023,0,3.475-1.177,3.791-1.565S79.977,90.605,79.561,90.562z"/>
		<path style="fill:#D0CFCB;" d="M83.884,148.443c-4.938,3.05-4.938,3.05-7.615,8.141c-1.187-4.03-3.864-6.533-7.672-8.073
			c1.249-0.884,2.362-1.613,3.41-2.426c1.827-1.417,3.251-3.307,3.495-5.528c0.185-1.685-0.453-3.544-1.039-5.216
			c-2.536-7.226-7.934-11.583-14.779-14.447c-3.67-1.535-7.421-2.377-11.44-1.927c-8.314,0.933-13.305,10.658-8.999,17.728
			c2.976,4.887,11.051,6.542,14.799,0.26c1.311-2.197,0.806-5.198-1.101-6.775c-1.471-1.216-3.682-0.967-4.601,0.684
			c-0.287,0.515-0.042,1.395,0.12,2.07c0.156,0.654,1.122,1.263,0.099,1.918c-0.772,0.494-1.811,0.043-2.321-0.898
			c-1.46-2.697,0.613-6.292,3.828-6.639c4.045-0.436,7.415,3.084,6.917,7.224c-0.765,6.367-7.259,10.297-13.437,8.132
			c-6.163-2.16-9.471-8.598-7.644-15.121c1.709-6.098,5.751-9.716,12.004-10.832c0.247-0.044,0.496-0.085,0.739-0.147
			c0.07-0.018,0.122-0.104,0.295-0.26c-0.884-0.518-1.742-0.991-2.569-1.514c-0.924-0.585-1.962-1.079-2.695-1.854
			c-1.409-1.49-3.132-1.673-5.015-1.814c-5.815-0.436-11.521-1.43-16.922-3.778c-6.274-2.728-10.787-7.348-14.226-13.138
			c-3.432-5.778-5.317-12.03-5.155-18.748c0.107-4.411-0.38-3.649,3.898-3.996c6.924-0.562,12.812,2.21,18.196,6.265
			c3.935,2.963,7.073,6.582,8.974,11.186c0.046,0.112,0.109,0.216,0.252,0.495c0.49-2.476,0.969-4.677,1.332-6.897
			c0.076-0.468-0.123-1.163-0.455-1.484c-1.26-1.219-2.589-2.374-3.961-3.466c-1.9-1.513-4.073-2.742-5.751-4.462
			c-3.015-3.091-3.6-7.065-3.006-11.184c0.715-4.961,2.628-9.465,5.663-13.473c0.151-0.199,0.328-0.38,0.506-0.556
			c0.054-0.053,0.153-0.06,0.359-0.134c0.091,0.304,0.226,0.595,0.261,0.898c0.379,3.273,2.022,5.704,4.759,7.512
			c1.75,1.156,3.456,2.403,5.056,3.758c3.422,2.898,4.354,6.634,3.084,10.841c-0.995,3.297-2.412,6.468-3.36,9.776
			c-0.959,3.345-1.854,6.754-2.282,10.197c-1.03,8.291,2.344,14.802,8.658,20.019c3.511,2.901,7.689,4.455,11.794,6.182
			c0.704,0.296,1.414,0.578,2.2,0.664c-1.844-1.646-3.761-3.217-5.517-4.951c-5.967-5.888-10.4-12.679-11.927-21.078
			c-1.036-5.699-0.262-11.231,1.724-16.631c1.34-3.643,2.535-7.312,2.469-11.278c-0.031-1.863-0.46-3.559-1.34-5.192
			c-3.203-5.943-0.146-13.929,6.2-16.187c1.438-0.512,2.621-1.082,3.449-2.582c1.663-3.013,4.351-5.072,7.26-6.857
			c0.484-0.297,0.919-0.976,1.021-1.542c0.558-3.115-0.149-6.01-1.74-8.72c-0.82-1.397-1.6-2.816-2.398-4.226
			c0.088-0.122,0.176-0.244,0.264-0.366c0.706,0.139,1.457,0.169,2.109,0.439c1.895,0.785,3.706,0.599,5.484-0.29
			c4.715-2.356,7.644-6.223,9.269-11.139c0.512-1.548,0.838-3.158,1.327-5.038c0.485,1.809,0.827,3.372,1.324,4.883
			c1.667,5.063,4.739,8.938,9.635,11.271c1.852,0.883,3.69,1.039,5.624,0.353c0.606-0.215,1.256-0.308,1.886-0.456
			c0.09,0.105,0.181,0.21,0.271,0.314c-0.316,0.641-0.562,1.331-0.962,1.915c-1.479,2.159-2.973,4.301-3.367,6.98
			c-0.037,0.25-0.09,0.497-0.131,0.746c-0.459,2.76,0.276,4.902,2.857,6.386c3.447,1.981,6.107,4.866,8.464,8.029
			c0.577,0.774,1.085,1.605,1.557,2.447c0.411,0.733,0.829,1.027,1.779,0.861c2.166-0.378,3.846,1.587,3.018,3.483
			c-0.296,0.679-0.997,1.18-1.545,1.798c0.599,2.275,1.453,4.667,1.828,7.132c0.658,4.316,1.058,8.674,1.48,13.022
			c0.087,0.894,0.241,1.556,0.978,2.164c0.818,0.675,1.458,1.565,2.411,2.621c-0.507-1.604-0.944-2.868-1.308-4.153
			c-1.911-6.757-0.301-11.157,5.517-15.13c0.695-0.474,1.409-0.921,2.116-1.377c1.973-1.272,3.223-3.041,3.694-5.351
			c0.099-0.486,0.224-0.967,0.388-1.67c0.591,0.345,1.146,0.511,1.464,0.88c4.926,5.724,7.869,15.233,3.163,23.099
			c-1.89,3.159-4.754,5.291-7.791,7.232c-1.096,0.701-2.685,1.272-3.06,2.273c-0.36,0.96,0.564,2.4,0.92,3.63
			c0.315,1.088,0.625,2.177,0.994,3.464c0.639-1.067,1.168-1.997,1.741-2.9c6.512-10.257,15.86-14.638,27.897-13.492
			c1.118,0.106,1.467,0.567,1.493,1.667c0.108,4.668-0.951,9.102-2.486,13.46c-1.817,5.158-4.53,9.77-8.454,13.602
			c-5.237,5.114-11.677,7.863-18.767,9.18c-2.35,0.437-4.783,0.418-7.139,0.831c-1.274,0.224-2.576,0.745-3.668,1.441
			c-1.79,1.14-3.42,2.532-4.933,3.678c2.043,0.871,4.289,1.517,6.204,2.7c8.108,5.01,8.192,17.462,0.245,22.621
			c-5.677,3.686-13.352,1.429-15.553-4.575c-1.119-3.053-0.496-6.221,1.681-8.137c1.669-1.469,3.614-1.995,5.749-1.201
			c1.806,0.672,2.862,2.05,3.103,3.96c0.154,1.218-0.095,2.388-1.179,3.146c-0.704,0.493-1.552,0.629-2.188-0.078
			c-0.645-0.717,0.047-1.205,0.497-1.69c0.836-0.901,0.667-2.128-0.4-2.905c-1.282-0.933-3.247-0.685-4.359,0.551
			c-1.666,1.851-1.746,4.693-0.193,6.893c3.448,4.884,10.328,4.783,14.252-0.222c4.191-5.345,2.891-15.453-6.269-18.131
			c-2.412-0.705-4.76-0.664-7.054,0.249c-4.141,1.648-8.363,3.153-12.334,5.15c-5.746,2.889-8.916,8.014-10.338,14.085
			c-0.62,2.647,1.087,4.96,2.988,6.783C81.095,146.596,82.518,147.436,83.884,148.443z M92.044,81.847l0.035,0.034
			c-0.329-1.123-1.189-1.652-2.255-2.059c-0.408,1.437-1.267,2.324-2.759,2.422c-1.716,0.113-2.408-1.069-2.97-2.811
			c-1.346,1.258-2.497,2.335-3.649,3.412c-0.086-0.063-0.173-0.125-0.259-0.188c0.94-1.248,1.686-2.743,2.873-3.676
			c1.196-0.94,2.831-1.321,4.422-2.012c-1.03-0.559-2.163-1.654-3.303-1.66c-1.209-0.007-2.425,1.018-3.638,1.593
			c-0.076-0.065-0.152-0.13-0.228-0.195c0.69-1.117,1.38-2.234,2.147-3.476c-5.555-3.981-10.94-8.188-15.116-14.03
			c-2.803,5.884-5.925,10.971-13.397,10.17c0,3.439,0,6.712,0,10.05c-1.275-1.794-2.626-3.473-5.237-3.415
			c0.121,3.097,0.435,6.008,1.713,8.725c0.763,1.622,1.938,2.685,3.857,2.842c0.483,0.04,1.098,0.549,1.346,1.007
			c0.798,1.477,1.454,3.032,2.164,4.557c2.828,6.074,6.475,11.481,12.051,15.439c4.969,3.527,7.891,3.649,12.865,0.163
			c6.213-4.354,10.281-10.238,12.778-17.385c1.095-3.135,0.666-5.627-1.599-7.904C93.314,82.874,92.66,82.379,92.044,81.847z
			 M98.202,62.642c0.041-0.467,0.087-0.675,0.074-0.88c-0.337-5.383-1.588-10.524-4.695-14.996
			c-4.154-5.979-9.709-9.869-17.161-10.511c-2.956-0.255-5.838,0.22-8.36,1.872c-4.513,2.956-5.564,7.487-3.204,12.733
			c2.619,5.823,6.713,10.472,11.524,14.508c3.866,3.243,7.94,6.235,11.877,9.395c5.146,4.13,9.425,8.991,12.407,14.934
			c4.897,9.761,3.562,19.498-3.811,27.557c-0.252,0.275-0.466,0.586-0.697,0.88c0.101,0.131,0.202,0.261,0.303,0.392
			c3.101-1.834,6.292-3.535,9.264-5.558c1.451-0.988,2.761-2.412,3.68-3.916c4.751-7.787,5.13-15.666,0.115-23.55
			c-3.161-4.97-7.595-8.599-12.294-12.002c-5.789-4.193-11.593-8.379-17.183-12.83c-3.606-2.871-6.485-6.485-8.33-10.799
			c-0.79-1.846-1.306-3.757-1.139-5.815c1.446,5.906,5.118,10.31,9.696,13.941c4.973,3.944,10.096,7.714,15.317,11.325
			c5.221,3.612,10.201,7.435,14.046,12.551c2.928,3.896,5.182,8.137,5.473,13.086c0.166,2.83-0.174,5.69-0.281,8.414
			c-0.139,0.078-0.045,0.055-0.001-0.005c0.147-0.204,0.286-0.415,0.41-0.634c2.197-3.894,2.78-8.073,2.169-12.454
			c-0.921-6.606-4.504-11.752-8.957-16.452c-4.069-4.295-8.966-7.49-13.874-10.675c-4.858-3.153-9.433-6.636-13.174-11.101
			c-0.814-0.971-1.472-2.073-2.202-3.115c0.101-0.081,0.202-0.162,0.303-0.243C84.78,54.506,91.504,58.361,98.202,62.642z
			 M76.178,24.598c-0.318,0.448-0.738,1.016-1.133,1.602c-1.858,2.759-4.259,4.836-7.369,6.108
			c-1.985,0.812-4.014,1.597-5.839,2.699c-5.645,3.412-9.301,8.126-9.05,15.091c0.212,5.875,5.872,8.876,10.867,5.833
			c0.765-0.466,0.952-0.902,0.473-1.716c-0.596-1.013-1.135-2.073-1.567-3.166c-1.32-3.341-1.641-6.745,0.047-10.038
			c2.091-4.077,5.712-6.107,10.087-6.746c7.212-1.054,13.244,1.701,18.473,6.362c5.757,5.132,8.543,11.851,9.114,19.393
			c0.228,3.011,0.686,5.447,3.678,6.757c0.295,0.129,0.516,0.426,0.775,0.641c0.884,0.733,1.769,1.465,2.682,2.22
			c0.096-0.205,0.162-0.279,0.158-0.349c-0.052-0.882-0.104-1.765-0.174-2.645c-0.502-6.297-1.62-12.454-4.526-18.136
			c-3.435-6.718-8.318-11.976-15.385-15.03c-2.072-0.896-4.209-1.858-5.95-3.248C79.57,28.66,78.016,26.573,76.178,24.598z
			 M59.142,115.299c0.116-0.062,0.231-0.125,0.347-0.187c0-3.968,0.125-7.942-0.063-11.901c-0.073-1.539-0.735-3.094-1.34-4.555
			c-1.156-2.792-2.447-5.53-3.729-8.268c-0.169-0.361-0.575-0.778-0.938-0.857c-2.906-0.626-4.538-2.679-5.269-5.261
			c-0.794-2.805-1.051-5.761-1.576-8.645c-0.233-1.28,0.451-1.678,1.521-1.608c1.185,0.077,2.361,0.283,3.512,0.429
			c0-1.537,0.023-3.086-0.02-4.634c-0.009-0.31-0.188-0.762-0.428-0.894c-1.197-0.661-2.44-1.236-3.701-1.859
			c-0.03,0.049-0.118,0.144-0.149,0.255c-0.683,2.419-1.199,4.9-2.069,7.249c-2.18,5.885-3.192,11.842-1.756,18.061
			c1.52,6.583,4.968,12.099,9.54,16.942C54.94,111.595,57.096,113.395,59.142,115.299z M4.875,74.811
			c-0.607,10.178,3.293,18.275,9.967,25.227c4.431,4.616,17.49,9.514,21.749,8.324c-6.443-5.015-6.41-5.038-11.295-11.969
			c-0.718-1.018-1.783-2.039-2.913-2.472c-3.052-1.171-6.219-2.045-9.352-2.999c-1.453-0.442-2.933-0.794-4.401-1.187
			c0.026-0.106,0.052-0.211,0.078-0.317c4.462-0.511,8.733,0.541,13.119,1.927C17.638,84.241,11.866,79.144,4.875,74.811z
			 M88.705,31.59c-0.388-3.843,0.277-7.21,2.16-10.377c-7.54-1.036-11.761-5.769-14.563-12.345
			c-2.833,6.718-7.136,11.382-14.424,12.285c0.625,1.697,1.387,3.269,1.763,4.928c0.38,1.681,0.377,3.448,0.547,5.231
			c6.69-1.877,10.311-6.579,12.176-12.996c0.959,3.109,2.226,5.876,4.236,8.274C82.677,29.066,85.474,30.342,88.705,31.59z
			 M76.552,130.263c1.299-4.411,3.68-8.13,6.397-11.626c2.088-2.687,4.378-5.217,6.575-7.819c1.582-1.874,1.249-4.093,1.047-6.416
			c-0.681,0.45-1.101,1.088-1.612,1.641c-2.212,2.395-4.702,4.439-7.555,6.047c-3.182,1.793-6.421,2.099-9.586,0.178
			c-2.181-1.324-4.231-2.886-6.231-4.479c-1.319-1.051-2.442-2.346-3.769-3.644c-0.395,2.886-0.065,5.209,1.91,7.401
			c2.888,3.207,5.573,6.629,8.038,10.172C73.578,124.32,74.899,127.265,76.552,130.263z M98.238,90.046
			c-0.214,0.524-0.334,0.824-0.46,1.122c-1.109,2.626-2.031,5.355-3.398,7.839c-0.854,1.551-1.26,3.066-1.342,4.755
			c-0.044,0.925-0.19,1.857-0.118,2.773c0.261,3.327-1.329,5.714-3.582,7.955c-3.534,3.515-6.45,7.533-8.859,11.907
			c-0.22,0.399-0.403,0.818-0.603,1.228c2.693-2.976,6.168-4.766,9.35-6.952c1.865-1.281,3.801-2.557,5.36-4.17
			c5.152-5.329,7.864-11.587,6.455-19.158C100.571,94.821,99.571,92.48,98.238,90.046z M144.946,89.33
			c-0.401,0.041-0.654,0.031-0.885,0.095c-3.524,0.982-7.041,1.989-10.568,2.958c-2.68,0.736-4.753,2.172-6.088,4.697
			c-2.204,4.17-5.418,7.474-9.178,10.273c-0.443,0.33-0.873,0.678-1.553,1.207C129.329,107.554,139.735,101.495,144.946,89.33z
			 M51.313,44.128c-1.888,0.685-3.25,1.727-4.34,3.151c-2.56,3.344-3.337,9.5,1.205,12.882c3.831,2.853,10.61,3.204,14.558,0.515
			c1.123-0.765,2.042-1.832,3.054-2.76c-0.092-0.106-0.183-0.212-0.275-0.318c-0.312,0.183-0.624,0.366-0.936,0.55
			c-3.406,2.02-7.322,1.899-10.412-0.489c-3.45-2.667-4.1-6.368-3.518-10.428C50.789,46.254,51.059,45.294,51.313,44.128z
			 M130.293,92.361c0.166,0.024,0.266,0.072,0.313,0.04c4.467-2.973,9.555-4.267,14.678-5.488c0.388-0.093,0.864-0.528,0.986-0.906
			c0.58-1.796,1.155-3.605,1.531-5.45c0.36-1.769,0.471-3.589,0.728-5.687C140.591,79.168,134.753,85.009,130.293,92.361z
			 M36.523,77.069c0.168,0.033,0.336,0.066,0.504,0.099c0.825-2.406,1.732-4.787,2.455-7.222c1.057-3.564-0.128-6.461-2.993-8.693
			c-2.565-1.999-5.187-3.924-7.908-5.976c0.105,1.301-0.033,2.778,0.385,4.074c0.742,2.296,1.571,4.636,2.816,6.682
			C33.895,69.503,35.764,73.026,36.523,77.069z M123.588,55.098c-1.782,1.27-3.471,2.634-5.307,3.756
			c-6.233,3.805-6.135,10.588-2.512,16.704C120.723,67.748,124.034,59.037,123.588,55.098z M127.129,82.484
			c-0.163-0.029-0.327-0.058-0.49-0.087c-0.189,0.156-0.429,0.278-0.559,0.473c-1.671,2.511-3.504,4.939-4.919,7.588
			c-0.841,1.574-1.031,3.5-1.495,5.272c-0.56,2.141-0.991,4.324-1.689,6.418c-0.438,1.313-1.264,2.497-1.982,3.864
			c0.265-0.096,0.379-0.12,0.476-0.176c0.181-0.105,0.357-0.221,0.527-0.345c4.055-2.94,7.164-6.695,9.524-11.089
			c0.253-0.471,0.573-0.993,0.58-1.495C127.153,89.434,127.129,85.959,127.129,82.484z M125.423,53.434
			c0.784,9.078-3.878,16.233-8.387,23.694c3.008-0.636,5.515-1.618,7.52-3.599C130.144,68.008,129.432,59.265,125.423,53.434z
			 M26.353,82.191c-1.678,9.46,3.524,20.931,10.054,23.112c-0.861-2.58-1.778-5.354-2.713-8.123
			c-0.979-2.899-1.854-5.842-2.999-8.675C29.755,86.18,28.326,84.1,26.353,82.191z M23.985,90.459
			c0.146-0.046,0.292-0.091,0.438-0.137c-0.217-2.967-0.335-5.947-0.712-8.894c-0.114-0.894-0.759-1.927-1.477-2.503
			c-4.017-3.23-8.648-4.953-13.813-5.187c-0.326-0.015-0.656,0.046-0.984,0.072C14.424,78.009,19.755,83.676,23.985,90.459z
			 M26.601,54.987c-6.145,11.632-1.359,17.942,7.56,21.847c-0.053-0.288-0.081-0.528-0.142-0.76
			c-0.847-3.208-2.339-6.116-4.171-8.859c-1.78-2.664-3.13-5.485-3.24-8.759C26.568,57.301,26.601,56.143,26.601,54.987z
			 M128.924,89.722c4.445-5.853,9.132-11.279,15.408-15.136c-5.834,0.213-11.058,1.866-15.434,5.726
			c-0.275,0.243-0.535,0.702-0.518,1.047C128.523,84.148,128.734,86.934,128.924,89.722z M72.818,127.648
			c-3.089-5.834-6.753-10.987-11.404-15.426c0.02,2.984,1.212,5.512,3.194,7.568C67.191,122.468,69.979,124.949,72.818,127.648z
			 M62.997,62.944c-5.471,2.432-10.494,2.066-15.661-0.769C51.234,67.94,58.606,68.292,62.997,62.944z M134.289,118.297
			c-5.898-6.78-13.236-8.705-20.33-3.697C117.716,120.834,130.409,123.102,134.289,118.297z M117.762,32.127
			c-3.756,2.852-5.327,7.133-7.142,11.239c-0.02,0.045,0.064,0.136,0.155,0.318c1.361-0.438,2.728-0.943,4.13-1.317
			c5.177-1.382,8.719-4.556,10.568-9.578c0.454-1.234,0.737-2.531,1.184-4.095C123.19,29.247,120.279,30.216,117.762,32.127z
			 M111.045,29.045c-3.503,2.632-5.131,8.163-3.626,12.26c0.273,0.743,0.71,0.684,1.094,0.179c0.935-1.231,1.968-2.425,2.673-3.784
			c1.47-2.831,1.09-5.794,0.424-8.801C111.277,28.981,111.134,28.977,111.045,29.045z M105.728,25.231
			c0.001-1.484-1.168-2.738-2.562-2.748c-1.464-0.011-2.697,1.186-2.69,2.61c0.008,1.543,1.199,2.729,2.719,2.706
			C104.669,27.778,105.727,26.705,105.728,25.231z M116.799,46.724c-1.381,0.008-2.437,0.997-2.484,2.326
			c-0.047,1.335,1.062,2.445,2.47,2.472c1.465,0.028,2.513-0.956,2.525-2.369C119.321,47.793,118.207,46.715,116.799,46.724z"/>
	</g>
</g>
<g>
</g>
<g>
</g>
<g>
</g>
<g>
</g>
<g>
</g>
<g>
</g>
</svg>
